<?xml version="1.0" standalone="no"?>
<!DOCTYPE svg PUBLIC "-//W3C//DTD SVG 20010904//EN"
 "http://www.w3.org/TR/2001/REC-SVG-20010904/DTD/svg10.dtd">
<svg version="1.0" xmlns="http://www.w3.org/2000/svg"
 width="1086.000000pt" height="1086.000000pt" viewBox="0 0 1086.000000 1086.000000"
 preserveAspectRatio="xMidYMid meet">
<metadata>
Created by potrace 1.11, written by Peter Selinger 2001-2013
</metadata>
<g transform="translate(0.000000,1086.000000) scale(0.100000,-0.100000)"
fill="#000000" stroke="none">
<path d="M5045 10800 c-49 -5 -121 -11 -160 -15 -38 -3 -101 -10 -140 -16 -38
-5 -88 -12 -110 -15 -162 -21 -456 -83 -645 -134 -802 -218 -1542 -617 -2170
-1169 -141 -124 -429 -418 -547 -558 -318 -377 -614 -840 -790 -1238 -17 -38
-41 -92 -53 -120 -77 -171 -191 -502 -254 -735 -29 -106 -90 -387 -101 -465
-4 -27 -9 -59 -11 -70 -12 -59 -45 -338 -51 -432 -15 -214 -7 -887 12 -946 2
-7 6 -41 10 -77 12 -133 58 -400 96 -565 225 -984 713 -1869 1424 -2580 179
-180 220 -219 345 -326 75 -64 292 -233 329 -257 15 -9 28 -19 31 -23 13 -17
343 -227 476 -302 485 -276 1058 -491 1584 -596 30 -6 66 -14 80 -16 39 -8
260 -43 310 -49 25 -3 65 -8 90 -12 25 -3 59 -7 75 -9 160 -20 751 -28 967
-12 126 9 269 25 418 48 109 17 121 19 230 40 710 139 1378 416 1984 822 176
117 417 303 569 438 126 111 434 423 517 524 41 49 83 99 93 110 34 37 243
319 304 410 514 769 824 1666 890 2575 16 210 8 809 -11 930 -2 14 -7 57 -11
95 -27 290 -123 721 -235 1055 -146 440 -325 814 -580 1214 -68 107 -311 442
-357 491 -10 11 -52 61 -93 110 -72 86 -380 401 -485 496 -423 382 -985 739
-1500 953 -77 33 -153 64 -170 71 -193 82 -643 213 -890 259 -85 17 -255 46
-290 50 -22 3 -71 10 -110 15 -38 6 -108 13 -155 17 -47 3 -94 9 -105 11 -35
9 -717 11 -810 3z"/>
</g>
</svg>
