<svg xmlns="http://www.w3.org/2000/svg" xmlns:xlink="http://www.w3.org/1999/xlink" width="1440" height="487" viewBox="0 0 1440 487">
    <defs>
        <path id="a" d="M0 .095h16v15.867H0z"/>
    </defs>
    <g fill="none" fill-rule="evenodd">
        <path fill="#9AC4E9" d="M1455 480a8 8 0 1 1-16.001-.001A8 8 0 0 1 1455 480"/>
        <path stroke="#EAEAEA" stroke-width="2" d="M1447 385.5a5.5 5.5 0 1 1-11 0 5.5 5.5 0 0 1 11 0z"/>
        <path fill="#EAEAEA" d="M1432.77 406.736a3 3 0 1 1 2.46-5.471 3 3 0 0 1-2.46 5.47"/>
        <path stroke="#EAEAEA" stroke-width="3" d="M1426 351a8 8 0 1 1-16 0 8 8 0 0 1 16 0z"/>
        <path fill="#FF1D25" d="M1417 392a5 5 0 1 1-10 0 5 5 0 0 1 10 0"/>
        <path fill="#9AC4E9" d="M1352 352a8 8 0 1 1-16 0 8 8 0 0 1 16 0"/>
        <path fill="#EAEAEA" d="M1437 368a5 5 0 1 1-10 0 5 5 0 0 1 10 0"/>
        <path stroke="#EAEAEA" stroke-width="2" d="M1373 380.5a5.5 5.5 0 0 1-5.5 5.5 5.5 5.5 0 1 1 5.5-5.5z"/>
        <path fill="#EAEAEA" d="M1402 348.5a5.5 5.5 0 0 1-5.5 5.5 5.5 5.5 0 1 1 5.5-5.5"/>
        <path fill="#FC0" d="M1396 376a7 7 0 1 1-14 0 7 7 0 0 1 14 0"/>
        <path fill="#EAEAEA" d="M1408.771 377.735a2.998 2.998 0 1 1 2.458-5.471 3 3 0 0 1-2.458 5.471M1358.771 400.735a2.998 2.998 0 1 1 2.458-5.471 3 3 0 0 1-2.458 5.471M1388 400.5a5.5 5.5 0 0 1-5.5 5.5 5.5 5.5 0 1 1 5.5-5.5"/>
        <path stroke="#EAEAEA" stroke-width="3" d="M1383 360a8 8 0 1 1-16 0 8 8 0 0 1 16 0z"/>
        <path fill="#FF1D25" d="M1344 385a5 5 0 1 1-10 0 5 5 0 0 1 10 0"/>
        <path fill="#9AC4E9" d="M1295 342a8 8 0 1 1-16 0 8 8 0 0 1 16 0M1154 427a8 8 0 1 1-16 0 8 8 0 0 1 16 0M1411 475a8 8 0 1 1-16 0 8 8 0 0 1 16 0"/>
        <path fill="#EAEAEA" d="M1313 349a5 5 0 1 1-10 0 5 5 0 0 1 10 0M1318 459a5 5 0 1 1-10 0 5 5 0 0 1 10 0M1429 482a5 5 0 1 1-10 0 5 5 0 0 1 10 0"/>
        <path stroke="#EAEAEA" stroke-width="2" d="M1299 373.5a5.5 5.5 0 1 1-11 0 5.5 5.5 0 0 1 11 0z"/>
        <path fill="#EAEAEA" d="M1328 341.5a5.5 5.5 0 1 1-11 0 5.5 5.5 0 0 1 11 0"/>
        <path fill="#FC0" d="M1323 369a7 7 0 1 1-14 0 7 7 0 0 1 14 0"/>
        <path fill="#EAEAEA" d="M1335.77 370.736a3 3 0 1 1 2.46-5.471 3 3 0 0 1-2.46 5.47M1285.77 393.736a3 3 0 1 1 2.46-5.471 3 3 0 0 1-2.46 5.47M1314 393.5a5.5 5.5 0 1 1-11 0 5.5 5.5 0 0 1 11 0"/>
        <path stroke="#EAEAEA" stroke-width="3" d="M1278 336a8 8 0 1 1-16 0 8 8 0 0 1 16 0zM1283 446a8 8 0 1 1-16 0 8 8 0 0 1 16 0zM1430 444a8 8 0 1 1-16 0 8 8 0 0 1 16 0z"/>
        <path fill="#FF1D25" d="M1270 377a5 5 0 1 1-10 0 5 5 0 0 1 10 0"/>
        <path fill="#9AC4E9" d="M1223 334a8 8 0 1 1-16 0 8 8 0 0 1 16 0M1134 372a8 8 0 1 1-16 0 8 8 0 0 1 16 0"/>
        <path fill="#EAEAEA" d="M1240 341a5 5 0 1 1-10 0 5 5 0 0 1 10 0M1245 451a5 5 0 1 1-10 0 5 5 0 0 1 10 0M1356 474a5 5 0 1 1-10 0 5 5 0 0 1 10 0"/>
        <path stroke="#EAEAEA" stroke-width="2" d="M1226 365.5a5.5 5.5 0 0 1-5.5 5.5 5.5 5.5 0 1 1 5.5-5.5z"/>
        <path fill="#EAEAEA" d="M1254 333.5a5.5 5.5 0 0 1-5.5 5.5 5.5 5.5 0 1 1 5.5-5.5M1259 443.5a5.5 5.5 0 0 1-5.5 5.5 5.5 5.5 0 1 1 5.5-5.5M1370 466.5a5.5 5.5 0 0 1-5.5 5.5 5.5 5.5 0 1 1 5.5-5.5"/>
        <path fill="#FC0" d="M1249 361a7.001 7.001 0 0 1-14 0 7.001 7.001 0 0 1 14 0M1121 414a7.001 7.001 0 0 1-14 0 7.001 7.001 0 0 1 14 0"/>
        <path fill="#EAEAEA" d="M1261.771 363.736a2.999 2.999 0 1 1 2.457-5.472 2.999 2.999 0 0 1-2.457 5.472M1212.771 385.736a2.999 2.999 0 1 1 2.457-5.472 2.999 2.999 0 0 1-2.457 5.472M1241 385.5a5.5 5.5 0 0 1-5.5 5.5 5.5 5.5 0 1 1 5.5-5.5"/>
        <path stroke="#EAEAEA" stroke-width="3" d="M1205 327a8 8 0 1 1-16.001-.001A8 8 0 0 1 1205 327zM1210 437a8 8 0 1 1-16.001-.001A8 8 0 0 1 1210 437z"/>
        <path fill="#FF1D25" d="M1197 368a5.001 5.001 0 0 1-10 0 5.001 5.001 0 0 1 10 0"/>
        <path fill="#9AC4E9" d="M1150 325a8 8 0 1 1-16.001-.001A8 8 0 0 1 1150 325"/>
        <path fill="#EAEAEA" d="M1166 332a5.001 5.001 0 0 1-10 0 5.001 5.001 0 0 1 10 0"/>
        <path stroke="#EAEAEA" stroke-width="2" d="M1153 356.5a5.5 5.5 0 1 1-11 0 5.5 5.5 0 0 1 11 0z"/>
        <path fill="#EAEAEA" d="M1181 324.5a5.5 5.5 0 1 1-11 0 5.5 5.5 0 0 1 11 0"/>
        <path fill="#FC0" d="M1350 454a7 7 0 1 1-14 0 7 7 0 0 1 14 0"/>
        <path fill="#EAEAEA" d="M1188.77 353.736a3 3 0 1 1 3.965-1.507 3 3 0 0 1-3.964 1.507M1139.77 376.736a3 3 0 1 1 3.965-1.507 3 3 0 0 1-3.964 1.507M1167 376.5a5.5 5.5 0 1 1-11 0 5.5 5.5 0 0 1 11 0"/>
        <path stroke="#EAEAEA" stroke-width="3" d="M1133 316a8 8 0 1 1-16 0 8 8 0 0 1 16 0z"/>
        <path fill="#FF1D25" d="M1431 412a5 5 0 1 1-10 0 5 5 0 0 1 10 0"/>
        <path fill="#9AC4E9" d="M1076 314a8 8 0 1 1-16 0 8 8 0 0 1 16 0M1322 443a8 8 0 1 1-16 0 8 8 0 0 1 16 0"/>
        <path fill="#EAEAEA" d="M1094 321a5 5 0 1 1-10 0 5 5 0 0 1 10 0"/>
        <path stroke="#EAEAEA" stroke-width="2" d="M1079 345.5a5.5 5.5 0 1 1-11 0 5.5 5.5 0 0 1 11 0z"/>
        <path fill="#EAEAEA" d="M1109 313.5a5.5 5.5 0 1 1-11 0 5.5 5.5 0 0 1 11 0"/>
        <path fill="#FC0" d="M1103 341a7.001 7.001 0 0 1-14 0 7.001 7.001 0 0 1 14 0"/>
        <path fill="#EAEAEA" d="M1115.77 342.736a3 3 0 1 1 2.46-5.471 3 3 0 0 1-2.46 5.47M1065.77 365.736a3 3 0 1 1 2.46-5.471 3 3 0 0 1-2.46 5.47M1195.77 418.736a3 3 0 1 1 2.46-5.471 3 3 0 0 1-2.46 5.47M1095 365.5a5.5 5.5 0 1 1-11 0 5.5 5.5 0 0 1 11 0"/>
        <path stroke="#EAEAEA" stroke-width="3" d="M1059 304a8 8 0 1 1-16.001-.001A8 8 0 0 1 1059 304z"/>
        <path fill="#FF1D25" d="M1051 346a5.001 5.001 0 0 1-10 0 5 5 0 0 1 10 0M1185 431a5.001 5.001 0 0 1-10 0 5 5 0 0 1 10 0"/>
        <path fill="#9AC4E9" d="M1004 302a8 8 0 1 1-16.001-.001A8 8 0 0 1 1004 302M1002 348a8 8 0 1 1-16.001-.001A8 8 0 0 1 1002 348"/>
        <path fill="#EAEAEA" d="M1020 310a5.001 5.001 0 0 1-10 0 5 5 0 0 1 10 0M1018 356a5.001 5.001 0 0 1-10 0 5 5 0 0 1 10 0"/>
        <path stroke="#EAEAEA" stroke-width="2" d="M1007 333.5a5.5 5.5 0 1 1-11 0 5.5 5.5 0 0 1 11 0zM1005 379.5a5.5 5.5 0 1 1-11 0 5.5 5.5 0 0 1 11 0z"/>
        <path fill="#EAEAEA" d="M1035 302.5a5.5 5.5 0 1 1-11 0 5.5 5.5 0 0 1 11 0M1033 348.5a5.5 5.5 0 1 1-11 0 5.5 5.5 0 0 1 11 0"/>
        <path fill="#FC0" d="M1030 329a7.001 7.001 0 0 1-14 0 7 7 0 0 1 14 0M1055 377a7.001 7.001 0 0 1-14 0 7 7 0 0 1 14 0M1396 448a7.001 7.001 0 0 1-14 0 7 7 0 0 1 14 0"/>
        <path fill="#EAEAEA" d="M1042.771 331.736a3 3 0 1 1 2.46-5.473 3 3 0 0 1-2.46 5.473M1288.771 460.736a3 3 0 1 1 2.46-5.473 3 3 0 0 1-2.46 5.473M1151.771 395.736a3 3 0 1 1 2.46-5.473 3 3 0 0 1-2.46 5.473M991.771 399.736a3 3 0 1 1 2.46-5.473 3 3 0 0 1-2.46 5.473M1109 381.5a5.5 5.5 0 1 1-11 0 5.5 5.5 0 0 1 11 0M1019 400.5a5.5 5.5 0 1 1-11 0 5.5 5.5 0 0 1 11 0"/>
        <path stroke="#EAEAEA" stroke-width="3" d="M987 291a8 8 0 1 1-16 0 8 8 0 0 1 16 0zM985 337a8 8 0 1 1-16 0 8 8 0 0 1 16 0z"/>
        <path fill="#FF1D25" d="M1117 397a5 5 0 1 1-10 0 5 5 0 0 1 10 0M977 378a5 5 0 1 1-10 0 5 5 0 0 1 10 0"/>
        <path fill="#9AC4E9" d="M931 289a8 8 0 1 1-16 0 8 8 0 0 1 16 0M1089 397a8 8 0 1 1-16 0 8 8 0 0 1 16 0"/>
        <path fill="#EAEAEA" d="M948 296a5 5 0 1 1-10 0 5 5 0 0 1 10 0M946 342a5 5 0 1 1-10 0 5 5 0 0 1 10 0"/>
        <path stroke="#EAEAEA" stroke-width="2" d="M934 320.5a5.5 5.5 0 1 1-11 0 5.5 5.5 0 0 1 11 0zM932 366.5a5.5 5.5 0 1 1-11 0 5.5 5.5 0 0 1 11 0z"/>
        <path fill="#EAEAEA" d="M963 288.5a5.5 5.5 0 1 1-11 0 5.5 5.5 0 0 1 11 0M961 334.5a5.5 5.5 0 1 1-11 0 5.5 5.5 0 0 1 11 0"/>
        <path fill="#FC0" d="M957 316a7 7 0 1 1-14 0 7 7 0 0 1 14 0M955 362a7 7 0 1 1-14 0 7 7 0 0 1 14 0"/>
        <path fill="#EAEAEA" d="M969.77 317.736a3 3 0 1 1 2.46-5.472 3 3 0 0 1-2.46 5.472M967.77 363.736a3 3 0 1 1 2.46-5.472 3 3 0 0 1-2.46 5.472M1037.77 396.736a3 3 0 1 1 2.46-5.472 3 3 0 0 1-2.46 5.472M1052.77 415.736a3 3 0 1 1 2.46-5.472 3 3 0 0 1-2.46 5.472M919.77 386.736a3 3 0 1 1 2.46-5.472 3 3 0 0 1-2.46 5.472M927 341.5a5.5 5.5 0 1 1-11 0 5.5 5.5 0 0 1 11 0M947 386.5a5.5 5.5 0 1 1-11 0 5.5 5.5 0 0 1 11 0"/>
        <path stroke="#EAEAEA" stroke-width="3" d="M914 276a8 8 0 1 1-16 0 8 8 0 0 1 16 0z"/>
        <path fill="#FF1D25" d="M906 317a5 5 0 1 1-10 0 5 5 0 0 1 10 0M904 363a5 5 0 1 1-10 0 5 5 0 0 1 10 0"/>
        <path fill="#9AC4E9" d="M859 274a8 8 0 1 1-16 0 8 8 0 0 1 16 0"/>
        <path fill="#EAEAEA" d="M876 281a5 5 0 1 1-10 0 5 5 0 0 1 10 0M874 327a5 5 0 1 1-10 0 5 5 0 0 1 10 0"/>
        <path stroke="#EAEAEA" stroke-width="2" d="M862 305.5a5.5 5.5 0 0 1-5.5 5.5 5.5 5.5 0 0 1-5.5-5.5 5.5 5.5 0 0 1 5.5-5.5 5.5 5.5 0 0 1 5.5 5.5zM860 351.5a5.5 5.5 0 0 1-5.5 5.5 5.5 5.5 0 0 1-5.5-5.5 5.5 5.5 0 0 1 5.5-5.5 5.5 5.5 0 0 1 5.5 5.5z"/>
        <path fill="#EAEAEA" d="M890 273.5a5.5 5.5 0 0 1-5.5 5.5 5.5 5.5 0 0 1-5.5-5.5 5.5 5.5 0 0 1 5.5-5.5 5.5 5.5 0 0 1 5.5 5.5"/>
        <path fill="#FC0" d="M885 301a7.001 7.001 0 0 1-14 0 7.001 7.001 0 0 1 14 0M883 347a7.001 7.001 0 0 1-14 0 7.001 7.001 0 0 1 14 0"/>
        <path fill="#EAEAEA" d="M897.77 303.736a3.001 3.001 0 0 1-1.506-3.966 3 3 0 1 1 1.507 3.966M895.77 349.736a3.001 3.001 0 0 1-1.506-3.966 3 3 0 1 1 1.507 3.966M848.77 325.736a3.001 3.001 0 0 1-1.506-3.966 3 3 0 1 1 1.507 3.966M846.77 371.736a3.001 3.001 0 0 1-1.506-3.966 3 3 0 1 1 1.507 3.966M1031 375.5a5.5 5.5 0 0 1-5.5 5.5 5.5 5.5 0 0 1-5.5-5.5 5.5 5.5 0 0 1 5.5-5.5 5.5 5.5 0 0 1 5.5 5.5M875 371.5a5.5 5.5 0 0 1-5.5 5.5 5.5 5.5 0 0 1-5.5-5.5 5.5 5.5 0 0 1 5.5-5.5 5.5 5.5 0 0 1 5.5 5.5"/>
        <path stroke="#EAEAEA" stroke-width="3" d="M842 261a8 8 0 1 1-16.001-.001A8 8 0 0 1 842 261z"/>
        <path fill="#FF1D25" d="M834 303a5 5 0 1 1-10 0 5 5 0 0 1 10 0M832 349a5 5 0 1 1-10 0 5 5 0 0 1 10 0"/>
        <path fill="#9AC4E9" d="M786 259a8 8 0 1 1-16.001-.001A8 8 0 0 1 786 259"/>
        <path fill="#EAEAEA" d="M803 267a5 5 0 1 1-10 0 5 5 0 0 1 10 0"/>
        <path stroke="#EAEAEA" stroke-width="2" d="M790 290.5a5.5 5.5 0 1 1-11 0 5.5 5.5 0 0 1 11 0zM788 336.5a5.5 5.5 0 1 1-11 0 5.5 5.5 0 0 1 11 0z"/>
        <path fill="#EAEAEA" d="M818 259.5a5.5 5.5 0 1 1-11 0 5.5 5.5 0 0 1 11 0"/>
        <path fill="#FC0" d="M813 286a7 7 0 1 1-14 0 7 7 0 0 1 14 0M811 332a7 7 0 1 1-14 0 7 7 0 0 1 14 0"/>
        <path fill="#EAEAEA" d="M824.77 288.736a2.999 2.999 0 1 1 2.458-5.47 2.999 2.999 0 0 1-2.458 5.47M822.77 334.736a2.999 2.999 0 1 1 2.458-5.47 2.999 2.999 0 0 1-2.458 5.47M776.77 310.736a2.999 2.999 0 1 1 2.458-5.47 2.999 2.999 0 0 1-2.458 5.47M804 311.5a5.5 5.5 0 1 1-11 0 5.5 5.5 0 0 1 11 0M762 312.5a5.5 5.5 0 1 1-11 0 5.5 5.5 0 0 1 11 0"/>
        <path stroke="#EAEAEA" stroke-width="3" d="M771 243a8 8 0 1 1-15.999-.001A8 8 0 0 1 771 243z"/>
        <path fill="#FF1D25" d="M762 285a5 5 0 1 1-10 0 5 5 0 0 1 10 0"/>
        <path fill="#9AC4E9" d="M715 241a8 8 0 1 1-16.001-.001A8 8 0 0 1 715 241"/>
        <path fill="#EAEAEA" d="M732 248a5 5 0 1 1-10 0 5 5 0 0 1 10 0"/>
        <path stroke="#EAEAEA" stroke-width="2" d="M718 272.5a5.5 5.5 0 1 1-11 0 5.5 5.5 0 0 1 11 0z"/>
        <path fill="#EAEAEA" d="M747 241.5a5.5 5.5 0 1 1-11 0 5.5 5.5 0 0 1 11 0"/>
        <path fill="#FC0" d="M729 305a7 7 0 1 1-14 0 7 7 0 0 1 14 0"/>
        <path fill="#EAEAEA" d="M753.77 270.736a3 3 0 0 1 2.46-5.472 3 3 0 1 1-2.46 5.472M705.77 292.736a3 3 0 0 1 2.46-5.472 3 3 0 1 1-2.46 5.472M733 293.5a5.5 5.5 0 1 1-11 0 5.5 5.5 0 0 1 11 0"/>
        <path stroke="#EAEAEA" stroke-width="3" d="M699 226a8 8 0 1 1-16 0 8 8 0 0 1 16 0z"/>
        <path fill="#FF1D25" d="M675 294a5 5 0 1 1-10 0 5 5 0 0 1 10 0"/>
        <path fill="#9AC4E9" d="M643 224a8 8 0 1 1-16 0 8 8 0 0 1 16 0"/>
        <path fill="#EAEAEA" d="M659 231a5 5 0 1 1-10 0 5 5 0 0 1 10 0"/>
        <path stroke="#EAEAEA" stroke-width="2" d="M646 255.5a5.5 5.5 0 1 1-11 0 5.5 5.5 0 0 1 11 0z"/>
        <path fill="#EAEAEA" d="M675 224.5a5.5 5.5 0 1 1-11 0 5.5 5.5 0 0 1 11 0"/>
        <path fill="#FC0" d="M669 251a7 7 0 1 1-14 0 7 7 0 0 1 14 0"/>
        <path fill="#EAEAEA" d="M686.771 278.736a3 3 0 1 1 2.459-5.473 3 3 0 0 1-2.459 5.473M632.771 275.736a3 3 0 1 1 2.459-5.473 3 3 0 0 1-2.459 5.473M661 276.5a5.5 5.5 0 1 1-11 0 5.5 5.5 0 0 1 11 0"/>
        <path stroke="#EAEAEA" stroke-width="3" d="M603 232a8 8 0 1 1-16.001-.001A8 8 0 0 1 603 232z"/>
        <path fill="#FF1D25" d="M693 258a5 5 0 1 1-10 0 5 5 0 0 1 10 0"/>
        <path fill="#9AC4E9" d="M571 205a8 8 0 1 1-16.001-.001A8 8 0 0 1 571 205"/>
        <path fill="#EAEAEA" d="M588 212a5 5 0 1 1-10 0 5 5 0 0 1 10 0"/>
        <path stroke="#EAEAEA" stroke-width="2" d="M575 236.5a5.5 5.5 0 1 1-11 0 5.5 5.5 0 0 1 11 0z"/>
        <path fill="#EAEAEA" d="M604 204.5a5.5 5.5 0 1 1-11 0 5.5 5.5 0 0 1 11 0"/>
        <path fill="#FC0" d="M625 258a7 7 0 1 1-14 0 7 7 0 0 1 14 0"/>
        <path fill="#EAEAEA" d="M611.77 233.736a3 3 0 0 1 2.46-5.472 3 3 0 1 1-2.46 5.472M561.77 256.736a3 3 0 0 1 2.46-5.472 3 3 0 1 1-2.46 5.472M589 256.5a5.5 5.5 0 1 1-11 0 5.5 5.5 0 0 1 11 0"/>
        <path stroke="#EAEAEA" stroke-width="3" d="M466 217a8 8 0 1 1-16 0 8 8 0 0 1 16 0z"/>
        <path fill="#FF1D25" d="M549 228a5 5 0 1 1-10 0 5 5 0 0 1 10 0"/>
        <path fill="#9AC4E9" d="M501 184a8 8 0 1 1-16 0 8 8 0 0 1 16 0"/>
        <path fill="#EAEAEA" d="M518 192a5 5 0 1 1-10 0 5 5 0 0 1 10 0"/>
        <path stroke="#EAEAEA" stroke-width="2" d="M504 216.5a5.5 5.5 0 1 1-11 0 5.5 5.5 0 0 1 11 0z"/>
        <path fill="#EAEAEA" d="M533 184.5a5.5 5.5 0 1 1-11 0 5.5 5.5 0 0 1 11 0"/>
        <path fill="#FC0" d="M527 212a7.001 7.001 0 0 1-14 0 7 7 0 0 1 14 0"/>
        <path fill="#EAEAEA" d="M539.77 213.736a2.999 2.999 0 1 1 2.46-5.472 2.999 2.999 0 0 1-2.46 5.472M491.77 236.736a2.999 2.999 0 1 1 2.46-5.472 2.999 2.999 0 0 1-2.46 5.472M519 236.5a5.5 5.5 0 1 1-11 0 5.5 5.5 0 0 1 11 0"/>
        <path stroke="#EAEAEA" stroke-width="3" d="M432 174a8 8 0 1 1-16 0 8 8 0 0 1 16 0z"/>
        <path fill="#FF1D25" d="M478 207a5 5 0 1 1-10 0 5 5 0 0 1 10 0"/>
        <path fill="#9AC4E9" d="M373 174a8 8 0 1 1-16 0 8 8 0 0 1 16 0"/>
        <path fill="#EAEAEA" d="M447 170a5 5 0 1 1-10 0 5 5 0 0 1 10 0"/>
        <path stroke="#EAEAEA" stroke-width="2" d="M433 194.5a5.5 5.5 0 1 1-11 0 5.5 5.5 0 0 1 11 0z"/>
        <path fill="#EAEAEA" d="M461 162.5a5.5 5.5 0 1 1-11 0 5.5 5.5 0 0 1 11 0"/>
        <path fill="#FC0" d="M456 190a7 7 0 1 1-14 0 7 7 0 0 1 14 0"/>
        <path fill="#EAEAEA" d="M469.77 192.736a3 3 0 1 1 2.46-5.471 3 3 0 0 1-2.46 5.47M419.77 214.736a3 3 0 1 1 2.46-5.471 3 3 0 0 1-2.46 5.47M407 190.5a5.5 5.5 0 1 1-11 0 5.5 5.5 0 0 1 11 0"/>
        <path stroke="#EAEAEA" stroke-width="3" d="M416 141a8 8 0 1 1-16.001-.001A8 8 0 0 1 416 141z"/>
        <path fill="#FF1D25" d="M1334 429a5.001 5.001 0 0 1-10 0 5 5 0 0 1 10 0M1445 452a5.001 5.001 0 0 1-10 0 5 5 0 0 1 10 0"/>
        <path fill="#9AC4E9" d="M360 139a8 8 0 1 1-16.001-.001A8 8 0 0 1 360 139"/>
        <path fill="#EAEAEA" d="M378 147a5.001 5.001 0 0 1-10 0 5 5 0 0 1 10 0"/>
        <path stroke="#EAEAEA" stroke-width="2" d="M1269 406.5a5.5 5.5 0 1 1-11 0 5.5 5.5 0 0 1 11 0zM1380 429.5a5.5 5.5 0 1 1-11 0 5.5 5.5 0 0 1 11 0z"/>
        <path fill="#EAEAEA" d="M392 139.5a5.5 5.5 0 1 1-11 0 5.5 5.5 0 0 1 11 0"/>
        <path fill="#FC0" d="M1175 409a7 7 0 1 1-14 0 7 7 0 0 1 14 0"/>
        <path fill="#EAEAEA" d="M399.77 168.736a3 3 0 0 1 2.46-5.472 3 3 0 1 1-2.46 5.472M1324.77 409.736a3 3 0 0 1 2.46-5.472 3 3 0 1 1-2.46 5.472M1435.77 432.736a3 3 0 0 1 2.46-5.472 3 3 0 1 1-2.46 5.472M1293 411.5a5.5 5.5 0 1 1-11 0 5.5 5.5 0 0 1 11 0M1404 434.5a5.5 5.5 0 1 1-11 0 5.5 5.5 0 0 1 11 0"/>
        <path stroke="#EAEAEA" stroke-width="3" d="M346 118a8 8 0 1 1-16.001-.001A8 8 0 0 1 346 118z"/>
        <path fill="#FF1D25" d="M338 159a5 5 0 1 1-10 0 5 5 0 0 1 10 0"/>
        <path fill="#9AC4E9" d="M290 115a8 8 0 1 1-16.001-.001A8 8 0 0 1 290 115"/>
        <path fill="#EAEAEA" d="M308 123a5 5 0 1 1-10 0 5 5 0 0 1 10 0"/>
        <path stroke="#EAEAEA" stroke-width="2" d="M1145 394.5a5.5 5.5 0 1 1-11 0 5.5 5.5 0 0 1 11 0z"/>
        <path fill="#EAEAEA" d="M322 115.5a5.5 5.5 0 1 1-11 0 5.5 5.5 0 0 1 11 0"/>
        <path fill="#FC0" d="M317 143a7 7 0 1 1-14 0 7 7 0 0 1 14 0"/>
        <path fill="#EAEAEA" d="M329.77 144.736a3 3 0 0 1 2.46-5.472 2.998 2.998 0 1 1-2.46 5.472M1230.77 410.736a3 3 0 0 1 2.46-5.472 2.998 2.998 0 1 1-2.46 5.472M1341.77 433.736a3 3 0 0 1 2.46-5.472 2.998 2.998 0 1 1-2.46 5.472M1215 403.5a5.5 5.5 0 1 1-11 0 5.5 5.5 0 0 1 11 0"/>
        <path stroke="#EAEAEA" stroke-width="3" d="M277 93a8 8 0 1 1-16 0 8 8 0 0 1 16 0z"/>
        <path fill="#FF1D25" d="M1236 442a5 5 0 1 1-10 0 5 5 0 0 1 10 0"/>
        <path fill="#9AC4E9" d="M221 91a8 8 0 1 1-16 0 8 8 0 0 1 16 0"/>
        <path fill="#EAEAEA" d="M239 98a5 5 0 1 1-10 0 5 5 0 0 1 10 0"/>
        <path stroke="#EAEAEA" stroke-width="2" d="M225 122.5a5.5 5.5 0 1 1-11 0 5.5 5.5 0 0 1 11 0z"/>
        <path fill="#EAEAEA" d="M253 90.5a5.5 5.5 0 1 1-11 0 5.5 5.5 0 0 1 11 0"/>
        <path fill="#FC0" d="M248 118a7 7 0 1 1-14 0 7.001 7.001 0 0 1 14 0"/>
        <path fill="#EAEAEA" d="M260.77 119.736a3 3 0 1 1 2.46-5.471 3 3 0 0 1-2.46 5.47M240.77 142.736a3 3 0 1 1 2.46-5.471 3 3 0 0 1-2.46 5.47M275 142.5a5.5 5.5 0 1 1-11 0 5.5 5.5 0 0 1 11 0"/>
        <path stroke="#EAEAEA" stroke-width="3" d="M208 67a8 8 0 1 1-16 0 8 8 0 0 1 16 0z"/>
        <path fill="#FF1D25" d="M200 108a5 5 0 1 1-10 0 5 5 0 0 1 10 0"/>
        <path fill="#9AC4E9" d="M152 65a8 8 0 1 1-16 0 8 8 0 0 1 16 0"/>
        <path fill="#EAEAEA" d="M170 72a5 5 0 1 1-10 0 5 5 0 0 1 10 0"/>
        <path stroke="#EAEAEA" stroke-width="2" d="M156 96.5a5.5 5.5 0 1 1-11 0 5.5 5.5 0 0 1 11 0z"/>
        <path fill="#EAEAEA" d="M184 64.5a5.5 5.5 0 1 1-11 0 5.5 5.5 0 0 1 11 0"/>
        <path fill="#FC0" d="M179 92a7 7 0 1 1-14 0 7 7 0 0 1 14 0"/>
        <path fill="#EAEAEA" d="M191.77 93.736a3 3 0 1 1 2.46-5.471 3 3 0 0 1-2.46 5.47M379.77 194.736a3 3 0 1 1 2.46-5.471 3 3 0 0 1-2.46 5.47M171 116.5a5.5 5.5 0 1 1-11 0 5.5 5.5 0 0 1 11 0"/>
        <path stroke="#EAEAEA" stroke-width="3" d="M140 38a8 8 0 1 1-16 0 8 8 0 0 1 16 0z"/>
        <path fill="#FF1D25" d="M132 80a5 5 0 1 1-10 0 5 5 0 0 1 10 0"/>
        <path fill="#9AC4E9" d="M84 36a8 8 0 1 1-16 0 8 8 0 0 1 16 0"/>
        <path fill="#EAEAEA" d="M101 44a5 5 0 1 1-10 0 5 5 0 0 1 10 0"/>
        <path stroke="#EAEAEA" stroke-width="2" d="M87 67.5a5.5 5.5 0 1 1-11 0 5.5 5.5 0 0 1 11 0z"/>
        <path fill="#EAEAEA" d="M116 36.5a5.5 5.5 0 1 1-11 0 5.5 5.5 0 0 1 11 0"/>
        <path fill="#FC0" d="M110 63a7.001 7.001 0 0 1-14 0 7 7 0 0 1 14 0"/>
        <path fill="#EAEAEA" d="M123.771 65.736a2.999 2.999 0 1 1 2.457-5.472 2.999 2.999 0 0 1-2.457 5.472M335.771 184.736a2.999 2.999 0 1 1 2.457-5.472 2.999 2.999 0 0 1-2.457 5.472M102 88.5a5.5 5.5 0 1 1-11 0 5.5 5.5 0 0 1 11 0"/>
        <path stroke="#EAEAEA" stroke-width="3" d="M72 10a8 8 0 1 1-16 0 8 8 0 0 1 16 0z"/>
        <path fill="#FF1D25" d="M64 52a5 5 0 1 1-10 0 5 5 0 0 1 10 0"/>
        <g>
            <mask id="b" fill="#fff">
                <use xlink:href="#a"/>
            </mask>
            <path fill="#9AC4E9" d="M16 8.029c0 4.381-3.582 7.933-8 7.933-4.419 0-8-3.552-8-7.933C0 3.647 3.58.095 8 .095c4.418 0 8 3.552 8 7.934" mask="url(#b)"/>
        </g>
        <path fill="#EAEAEA" d="M33 15a5 5 0 1 1-10 0 5 5 0 0 1 10 0"/>
        <path stroke="#EAEAEA" stroke-width="2" d="M19 39.5a5.5 5.5 0 1 1-11 0 5.5 5.5 0 0 1 11 0z"/>
        <path fill="#EAEAEA" d="M47 7.5a5.5 5.5 0 1 1-11 0 5.5 5.5 0 0 1 11 0"/>
        <path fill="#FC0" d="M42 35a7 7 0 1 1-14 0 7 7 0 0 1 14 0"/>
        <path fill="#EAEAEA" d="M55.77 37.736a3 3 0 0 1 2.46-5.472 2.998 2.998 0 1 1-2.46 5.472M5.77 59.736a3 3 0 0 1 2.46-5.472 2.998 2.998 0 1 1-2.46 5.472M298 150.5a5.5 5.5 0 1 1-11 0 5.5 5.5 0 0 1 11 0"/>
    </g>
</svg>
