<svg xmlns="http://www.w3.org/2000/svg" xmlns:xlink="http://www.w3.org/1999/xlink" width="538" height="204" viewBox="0 0 538 204">
    <defs>
        <path id="a" d="M0 .654h9.002v9.003H0z"/>
    </defs>
    <g fill="none" fill-rule="evenodd">
        <path stroke="#EAEAEA" stroke-width="3" d="M40.492 110.388a7 7 0 1 1-.956 13.968 7 7 0 0 1 .956-13.968z"/>
        <path fill="#FF1D25" d="M50.069 131.59a4.501 4.501 0 0 1 4.184 4.797 4.501 4.501 0 0 1-8.98-.613 4.5 4.5 0 0 1 4.796-4.183"/>
        <path fill="#9AC4E9" d="M7.978 182.84a7 7 0 1 1-.955 13.967 7 7 0 0 1 .955-13.966"/>
        <path fill="#EAEAEA" d="M15.485 168.319a4.5 4.5 0 1 1-.613 8.978 4.5 4.5 0 1 1 .613-8.978"/>
        <path stroke="#EAEAEA" stroke-width="2" d="M36.116 181.756a5 5 0 1 1-.682 9.978 5 5 0 0 1 .682-9.978z"/>
        <path fill="#EAEAEA" d="M22.964 190.88a2.5 2.5 0 1 1-.34 4.989 2.5 2.5 0 0 1 .34-4.988M18.549 145.474a5 5 0 1 1-.683 9.977 5 5 0 0 1 .683-9.977"/>
        <path fill="#FC0" d="M33.49 161.53a6 6 0 1 1-.818 11.972 6 6 0 0 1 .818-11.972"/>
        <path fill="#EAEAEA" d="M36.048 150.203a2.5 2.5 0 1 1-4.41-2.356 2.5 2.5 0 1 1 4.41 2.356M53.07 194.466a2.5 2.5 0 1 1-4.41-2.354 2.5 2.5 0 0 1 4.41 2.354M54.961 170.013a5 5 0 1 1-.683 9.977 5 5 0 0 1 .683-9.977M61.36 142.385a2.5 2.5 0 1 1-.34 4.987 2.5 2.5 0 0 1 .34-4.987"/>
        <path fill="#FF1D25" d="M112.106 97.923a4.5 4.5 0 1 1-5.874 6.821 4.5 4.5 0 0 1 5.874-6.821"/>
        <path fill="#EAEAEA" d="M70.24 97.5a4.5 4.5 0 1 1-5.873 6.82 4.5 4.5 0 0 1 5.873-6.82"/>
        <path stroke="#EAEAEA" stroke-width="2" d="M78.7 120.623a5 5 0 1 1-6.528 7.577 5 5 0 0 1 6.528-7.577z"/>
        <path fill="#EAEAEA" d="M62.702 120.044a2.5 2.5 0 1 1-3.263 3.79 2.5 2.5 0 0 1 3.263-3.79M86.513 74.94a4.999 4.999 0 0 1 .525 7.052 4.998 4.998 0 0 1-7.05.526 4.999 4.999 0 1 1 6.525-7.577"/>
        <path fill="#FC0" d="M88.72 102.859a5.998 5.998 0 0 1 .63 8.46 6 6 0 1 1-.631-8.461"/>
        <path fill="#EAEAEA" d="M97.557 95.325a2.5 2.5 0 1 1-2.118-4.528 2.5 2.5 0 0 1 2.118 4.528M84.653 140.959a2.5 2.5 0 1 1-2.119-4.53 2.5 2.5 0 0 1 2.118 4.53M100.823 122.519a4.999 4.999 0 0 1 .526 7.05 4.999 4.999 0 0 1-7.052.527 4.999 4.999 0 1 1 6.526-7.577M129.388 82.453a2.5 2.5 0 1 1-3.263 3.789 2.5 2.5 0 1 1 3.263-3.79"/>
        <path stroke="#EAEAEA" stroke-width="3" d="M175.212 37.749a7 7 0 1 1-13.468 3.82 7 7 0 0 1 13.468-3.82z"/>
        <path fill="#FF1D25" d="M175.363 57.256a4.499 4.499 0 1 1-8.657 2.456 4.5 4.5 0 1 1 8.657-2.456"/>
        <path fill="#9AC4E9" d="M108.569 56.979A7 7 0 1 1 95.1 60.8a7 7 0 0 1 13.469-3.821"/>
        <path fill="#EAEAEA" d="M124.096 37.336a4.501 4.501 0 1 1-8.66 2.456 4.501 4.501 0 0 1 8.66-2.456"/>
        <path stroke="#EAEAEA" stroke-width="2" d="M134.979 57.798a5 5 0 1 1-9.62 2.73 5 5 0 0 1 9.62-2.73z"/>
        <path fill="#EAEAEA" d="M121.947 48.503a2.5 2.5 0 1 1-4.81 1.363 2.5 2.5 0 0 1 4.81-1.363M151.388 24.039a5 5 0 1 1-9.621 2.729 5 5 0 0 1 9.62-2.73"/>
        <path fill="#FC0" d="M153.128 48.492a6 6 0 1 1-11.546 3.274 6 6 0 0 1 11.546-3.274"/>
        <path fill="#EAEAEA" d="M179.53 47.175a2.499 2.499 0 0 1-2.11-2.837 2.499 2.499 0 1 1 4.947.727 2.5 2.5 0 0 1-2.837 2.11M119.676 78.204a2.499 2.499 0 0 1-2.109-2.837 2.499 2.499 0 1 1 4.946.727 2.5 2.5 0 0 1-2.837 2.11M152.398 71.567a5 5 0 1 1-9.62 2.73 5 5 0 0 1 9.62-2.73"/>
        <path stroke="#EAEAEA" stroke-width="3" d="M440.611 69.456a7 7 0 0 1-13.967-.954 7 7 0 0 1 13.967.954z"/>
        <path fill="#FF1D25" d="M419.41 79.033a4.5 4.5 0 1 1-8.98-.613 4.5 4.5 0 0 1 8.98.613"/>
        <path fill="#9AC4E9" d="M368.16 36.942a7 7 0 1 1-13.967-.955 7 7 0 0 1 13.966.955"/>
        <path fill="#EAEAEA" d="M382.682 44.449a4.5 4.5 0 1 1-8.98-.615 4.5 4.5 0 0 1 8.98.615"/>
        <path stroke="#EAEAEA" stroke-width="2" d="M369.244 65.081a5 5 0 0 1-9.978-.682 5.002 5.002 0 0 1 9.978.682z"/>
        <path fill="#EAEAEA" d="M360.12 51.928a2.5 2.5 0 1 1-4.99-.341 2.5 2.5 0 0 1 4.99.341M405.526 47.513a5 5 0 1 1-9.977-.683 5 5 0 0 1 9.977.683"/>
        <path fill="#FC0" d="M389.47 62.454a6 6 0 1 1-11.972-.818 6 6 0 0 1 11.972.818"/>
        <path fill="#EAEAEA" d="M400.797 65.012a2.5 2.5 0 1 1 2.354-4.41 2.5 2.5 0 0 1-2.354 4.41M356.533 82.034a2.498 2.498 0 0 1-1.026-3.383 2.5 2.5 0 1 1 1.026 3.383M380.986 83.925a5 5 0 1 1-9.976-.682 5.002 5.002 0 0 1 5.33-4.648 5.002 5.002 0 0 1 4.647 5.33"/>
        <path fill="#9AC4E9" d="M207.42 4.244a7 7 0 1 1-7.435 11.863 7 7 0 0 1 7.434-11.863"/>
        <path fill="#EAEAEA" d="M228.594 1.863a4.5 4.5 0 1 1-4.778 7.626 4.5 4.5 0 0 1 4.778-7.626"/>
        <path stroke="#EAEAEA" stroke-width="2" d="M244.363 27.944a5 5 0 1 1-5.31 8.474 5 5 0 0 1 5.31-8.474z"/>
        <path fill="#FC0" d="M252.893 1.093a5.999 5.999 0 0 1 1.897 8.27 5.998 5.998 0 0 1-8.27 1.898 6 6 0 1 1 6.373-10.168"/>
        <path fill="#EAEAEA" d="M258.363 19.941a5 5 0 1 1-5.31 8.474 5 5 0 0 1 5.31-8.474M408.615 90.323a2.5 2.5 0 1 1-4.988-.34 2.5 2.5 0 0 1 4.988.34"/>
        <path fill="#FF1D25" d="M349.41 43.033a4.5 4.5 0 1 1-8.98-.613 4.5 4.5 0 0 1 8.98.613"/>
        <path fill="#9AC4E9" d="M298.16 12.942a7 7 0 1 1-13.967-.955 7 7 0 0 1 13.966.955"/>
        <path fill="#EAEAEA" d="M312.682 20.449a4.5 4.5 0 1 1-8.98-.615 4.5 4.5 0 0 1 8.98.615"/>
        <path stroke="#EAEAEA" stroke-width="2" d="M299.244 41.081a5 5 0 0 1-9.978-.682 5.002 5.002 0 0 1 9.978.682z"/>
        <path fill="#EAEAEA" d="M290.12 27.928a2.5 2.5 0 1 1-4.99-.341 2.5 2.5 0 0 1 4.99.341M335.526 20.513a5 5 0 1 1-9.977-.683 5 5 0 0 1 9.977.683"/>
        <path fill="#FC0" d="M319.47 38.454a6 6 0 1 1-11.972-.818 6 6 0 0 1 11.972.818"/>
        <path fill="#EAEAEA" d="M330.797 38.012a2.5 2.5 0 1 1 2.354-4.41 2.5 2.5 0 0 1-2.354 4.41M286.533 55.034a2.498 2.498 0 0 1-1.026-3.383 2.5 2.5 0 1 1 1.026 3.383M310.986 50.925a5 5 0 1 1-9.976-.682 5.002 5.002 0 0 1 5.33-4.648 5.002 5.002 0 0 1 4.647 5.33M338.615 54.323a2.5 2.5 0 1 1-4.988-.34 2.5 2.5 0 0 1 4.988.34"/>
        <path fill="#FF1D25" d="M453.076 141.07a4.5 4.5 0 1 1-6.82-5.874 4.5 4.5 0 0 1 6.82 5.874"/>
        <path fill="#EAEAEA" d="M453.5 99.203a4.502 4.502 0 0 1-6.348.474 4.502 4.502 0 0 1-.472-6.347 4.498 4.498 0 0 1 6.345-.473 4.499 4.499 0 0 1 .474 6.346"/>
        <path stroke="#EAEAEA" stroke-width="2" d="M430.376 107.664a5 5 0 1 1-7.577-6.525 5 5 0 0 1 7.577 6.525z"/>
        <path fill="#EAEAEA" d="M430.956 91.667a2.5 2.5 0 1 1-3.789-3.264 2.5 2.5 0 0 1 3.79 3.264M476.06 115.477a5.001 5.001 0 1 1-7.578-6.528 5.001 5.001 0 0 1 7.578 6.528"/>
        <path fill="#FC0" d="M448.142 117.684a6 6 0 1 1-9.093-7.832 6 6 0 0 1 9.093 7.832"/>
        <path fill="#EAEAEA" d="M455.675 126.521a2.499 2.499 0 1 1 4.527-2.118 2.499 2.499 0 0 1-4.527 2.118M410.041 113.617a2.5 2.5 0 1 1 4.53-2.119 2.5 2.5 0 0 1-4.53 2.119M428.482 129.787a5.001 5.001 0 1 1-7.579-6.528 5.001 5.001 0 0 1 7.579 6.528M468.547 158.352a2.5 2.5 0 1 1-3.788-3.262 2.5 2.5 0 0 1 3.788 3.262"/>
        <path stroke="#EAEAEA" stroke-width="3" d="M530.769 201.1a7 7 0 1 1-3.821-13.468 7 7 0 0 1 3.82 13.469z"/>
        <g transform="rotate(-90 345.93 -141.43)">
            <mask id="b" fill="#fff">
                <use xlink:href="#a"/>
            </mask>
            <path fill="#FF1D25" d="M.172 6.384A4.5 4.5 0 1 1 8.83 3.927 4.5 4.5 0 0 1 .172 6.384" mask="url(#b)"/>
        </g>
        <path fill="#9AC4E9" d="M494.02 137.533a7.001 7.001 0 1 1-3.819-13.471 7.001 7.001 0 0 1 3.82 13.47"/>
        <path fill="#EAEAEA" d="M513.663 153.06a4.5 4.5 0 1 1-2.456-8.658 4.5 4.5 0 0 1 2.456 8.658"/>
        <path stroke="#EAEAEA" stroke-width="2" d="M493.201 163.943a5.001 5.001 0 0 1-2.729-9.621 5 5 0 0 1 2.73 9.621z"/>
        <path fill="#EAEAEA" d="M502.497 150.91a2.5 2.5 0 1 1-1.365-4.808 2.5 2.5 0 0 1 1.365 4.809M526.961 180.352a5 5 0 1 1-2.73-9.622 5 5 0 0 1 2.73 9.622"/>
        <path fill="#FC0" d="M502.508 182.092a6 6 0 1 1-3.275-11.546 6 6 0 0 1 3.275 11.546"/>
        <path fill="#EAEAEA" d="M503.927 193.617a2.5 2.5 0 1 1 4.947.727 2.5 2.5 0 0 1-4.947-.727M472.796 148.64a2.5 2.5 0 1 1 4.947.727 2.5 2.5 0 0 1-4.947-.727M479.433 181.362a5 5 0 1 1-2.73-9.62 5 5 0 0 1 2.73 9.62M212.988 40.745a5.001 5.001 0 0 1 3.996-9.167 5 5 0 0 1-3.996 9.167"/>
        <path fill="#FC0" d="M192.586 33.651a6 6 0 1 1 4.795-11 6 6 0 0 1-4.795 11"/>
        <path stroke="#EAEAEA" stroke-width="3" d="M260.301 42.495a7 7 0 1 1 11.741-7.627 7 7 0 0 1-11.741 7.627z"/>
        <path fill="#9AC4E9" d="M188.795 57.999a7 7 0 1 1 11.741-7.628 7 7 0 0 1-11.74 7.628"/>
        <path fill="#EAEAEA" d="M180.39 17.131a4.5 4.5 0 1 1 7.548-4.903 4.5 4.5 0 1 1-7.547 4.903M163.797 15.064a2.5 2.5 0 1 1 4.192-2.724 2.5 2.5 0 1 1-4.192 2.724M233.074 50.03a5 5 0 1 1-2.295-9.733 5 5 0 1 1 2.295 9.733M265.4 11.131a4.5 4.5 0 1 1 7.547-4.903 4.5 4.5 0 1 1-7.547 4.903M214.797 21.064a2.5 2.5 0 1 1 4.192-2.724 2.5 2.5 0 1 1-4.192 2.724"/>
    </g>
</svg>
