<svg xmlns="http://www.w3.org/2000/svg" width="1440" height="356" viewBox="0 0 1440 356">
    <g fill="none" fill-rule="evenodd">
        <path fill="#EAEAEA" d="M1436.465 61.923a6.497 6.497 0 0 1-3.388 8.542 6.497 6.497 0 0 1-8.542-3.388 6.497 6.497 0 0 1 3.388-8.542 6.497 6.497 0 0 1 8.542 3.388"/>
        <path stroke="#EAEAEA" stroke-width="2.79" d="M1453.838 4.957a7.499 7.499 0 0 1-5.795 8.88 7.497 7.497 0 0 1-8.88-5.793 7.499 7.499 0 1 1 14.675-3.087z"/>
        <path fill="#EAEAEA" d="M1416.881 25.369a5.498 5.498 0 1 1-10.762 2.262 5.499 5.499 0 0 1 10.762-2.262M1421.946 50.986a2.5 2.5 0 1 1-2.96-1.932 2.499 2.499 0 0 1 2.96 1.932M1359.59 128.018a5 5 0 1 1-9.182 3.963 5 5 0 0 1 9.181-3.963M1383.547 66.32a5.498 5.498 0 1 1-10.094 4.36 5.5 5.5 0 0 1 10.095-4.36M1321.465 122.923a6.496 6.496 0 0 1-3.388 8.542 6.498 6.498 0 1 1 3.388-8.542M1347.463 118a2.5 2.5 0 1 1 .075-5.001 2.5 2.5 0 0 1-.075 5M1383.794 121.509a2.5 2.5 0 1 1-4.589 1.983 2.5 2.5 0 0 1 4.59-1.983M1410.883 80.81a7.498 7.498 0 0 1-14.766-2.62 7.499 7.499 0 1 1 14.766 2.62M1407.092 56.565a2.5 2.5 0 1 1 2.815-4.13 2.5 2.5 0 0 1-2.815 4.13"/>
        <path stroke="#EAEAEA" stroke-width="2.79" d="M1338.838 64.957a7.499 7.499 0 1 1-14.676 3.086 7.499 7.499 0 0 1 14.676-3.086z"/>
        <path fill="#EAEAEA" d="M1301.881 86.368a5.5 5.5 0 1 1-10.763 2.263 5.5 5.5 0 0 1 10.763-2.263M1337.86 86.163a6.499 6.499 0 1 1-12.72 2.674 6.499 6.499 0 0 1 12.72-2.674M1306.946 111.986a2.5 2.5 0 1 1-4.893 1.027 2.5 2.5 0 0 1 4.893-1.027M1356.532 108.11a4.999 4.999 0 1 1-9.063-4.22 4.999 4.999 0 0 1 9.063 4.22M1330.766 106.554a2.499 2.499 0 1 1-4.531-2.107 2.499 2.499 0 0 1 4.531 2.107M1372.391 57.242a6.498 6.498 0 1 1-11.783-5.484 6.498 6.498 0 1 1 11.783 5.484M1358.609 81.135a2.5 2.5 0 1 1 3.783-3.27 2.5 2.5 0 0 1-3.783 3.27"/>
        <path stroke="#EAEAEA" stroke-width="1.86" d="M1406.383 105.183a5.499 5.499 0 1 1-5.767-9.365 5.499 5.499 0 0 1 5.767 9.365z"/>
        <path fill="#EAEAEA" d="M1380.021 94.823a2.5 2.5 0 1 1 4.957-.646 2.5 2.5 0 0 1-4.957.646M1248.589 194.017a5 5 0 1 1-9.18 3.965 5 5 0 0 1 9.18-3.965M1271.547 132.32a5.497 5.497 0 0 1-2.867 7.227 5.498 5.498 0 1 1-4.36-10.095 5.499 5.499 0 0 1 7.227 2.868M1209.465 188.923a6.498 6.498 0 1 1-11.93 5.154 6.498 6.498 0 0 1 11.93-5.154M1235.464 184a2.5 2.5 0 1 1 .071-5 2.5 2.5 0 0 1-.071 5M1271.795 187.51a2.5 2.5 0 1 1-4.59 1.98 2.5 2.5 0 0 1 4.59-1.98M1298.883 146.81a7.499 7.499 0 0 1-8.693 6.073 7.496 7.496 0 0 1-6.073-8.692 7.499 7.499 0 1 1 14.767 2.62M1295.093 122.566a2.5 2.5 0 1 1 3.473-.66 2.5 2.5 0 0 1-3.473.66"/>
        <path stroke="#EAEAEA" stroke-width="2.79" d="M1226.838 131.957a7.498 7.498 0 1 1-14.676 3.087 7.499 7.499 0 0 1 14.676-3.087z"/>
        <path fill="#EAEAEA" d="M1189.881 152.369a5.498 5.498 0 1 1-10.762 2.262 5.499 5.499 0 0 1 10.762-2.262M1226.86 152.162a6.5 6.5 0 1 1-12.717 2.673 6.5 6.5 0 0 1 12.716-2.673M1194.946 177.986a2.499 2.499 0 1 1-4.89 1.03 2.499 2.499 0 0 1 4.89-1.03M1245.532 174.109a4.999 4.999 0 1 1-9.064-4.217 4.999 4.999 0 0 1 9.064 4.217M1218.766 172.554a2.5 2.5 0 1 1-4.533-2.109 2.5 2.5 0 0 1 4.533 2.109M1260.392 123.24a6.5 6.5 0 1 1-11.785-5.483 6.5 6.5 0 0 1 11.785 5.484M1246.609 148.135a2.5 2.5 0 1 1 3.781-3.27 2.5 2.5 0 0 1-3.781 3.27"/>
        <path stroke="#EAEAEA" stroke-width="1.86" d="M1294.383 171.183a5.5 5.5 0 1 1-5.766-9.367 5.5 5.5 0 0 1 5.766 9.367z"/>
        <path fill="#EAEAEA" d="M1268.021 160.823a2.5 2.5 0 1 1 4.959-.644 2.5 2.5 0 0 1-4.959.644M1133.589 255.017a5 5 0 1 1-9.18 3.965 5 5 0 0 1 9.18-3.965M1156.547 193.32a5.497 5.497 0 0 1-2.867 7.227 5.498 5.498 0 1 1-4.36-10.095 5.499 5.499 0 0 1 7.227 2.868M1094.465 249.923a6.498 6.498 0 1 1-11.931 5.154 6.498 6.498 0 0 1 11.931-5.154M1120.464 245a2.5 2.5 0 1 1 .071-5 2.5 2.5 0 0 1-.071 5M1156.795 247.51a2.5 2.5 0 1 1-4.59 1.98 2.5 2.5 0 0 1 4.59-1.98M1183.883 207.81a7.499 7.499 0 0 1-8.693 6.073 7.496 7.496 0 0 1-6.073-8.692 7.499 7.499 0 1 1 14.767 2.62M1180.093 183.566a2.5 2.5 0 1 1 3.473-.66 2.5 2.5 0 0 1-3.473.66"/>
        <path stroke="#EAEAEA" stroke-width="2.79" d="M1111.838 191.957a7.5 7.5 0 1 1-14.677 3.086 7.5 7.5 0 0 1 14.677-3.086z"/>
        <path fill="#EAEAEA" d="M1074.881 212.369a5.498 5.498 0 1 1-10.762 2.262 5.499 5.499 0 0 1 10.762-2.262M1111.86 212.162a6.5 6.5 0 1 1-12.717 2.673 6.5 6.5 0 0 1 12.716-2.673M1079.946 238.986a2.499 2.499 0 1 1-4.89 1.03 2.499 2.499 0 0 1 4.89-1.03M1130.532 235.109a4.999 4.999 0 1 1-9.064-4.218 4.999 4.999 0 0 1 9.064 4.218M1103.766 233.554a2.5 2.5 0 1 1-4.533-2.11 2.5 2.5 0 0 1 4.533 2.11M1145.392 184.24a6.499 6.499 0 1 1-11.785-5.482 6.499 6.499 0 0 1 11.785 5.483M1131.609 208.135a2.5 2.5 0 1 1 3.781-3.27 2.5 2.5 0 0 1-3.781 3.27"/>
        <path stroke="#EAEAEA" stroke-width="1.86" d="M1179.383 231.183a5.5 5.5 0 1 1-5.766-9.366 5.5 5.5 0 0 1 5.766 9.366z"/>
        <path fill="#EAEAEA" d="M1153.021 221.823a2.5 2.5 0 1 1 4.959-.644 2.5 2.5 0 0 1-4.959.644M1010.59 298.019a5 5 0 1 1-9.18 3.962 5 5 0 0 1 9.18-3.962M1034.547 236.32a5.497 5.497 0 0 1-2.867 7.227 5.496 5.496 0 0 1-7.227-2.866 5.497 5.497 0 1 1 10.094-4.361M972.465 292.923a6.498 6.498 0 1 1-11.93 5.155 6.498 6.498 0 0 1 11.93-5.155M997.463 289a2.5 2.5 0 1 1 .072-4.999 2.5 2.5 0 0 1-.072 4.999M1034.794 291.51a2.5 2.5 0 1 1-4.589 1.982 2.5 2.5 0 0 1 4.59-1.983M1061.883 250.81a7.498 7.498 0 0 1-8.693 6.073 7.497 7.497 0 0 1-6.073-8.692 7.499 7.499 0 1 1 14.766 2.62M1058.093 227.566a2.498 2.498 0 0 1-.658-3.473 2.498 2.498 0 1 1 4.13 2.815 2.5 2.5 0 0 1-3.472.658"/>
        <path stroke="#EAEAEA" stroke-width="2.79" d="M989.838 235.956a7.499 7.499 0 1 1-14.676 3.087 7.499 7.499 0 0 1 14.676-3.087z"/>
        <path fill="#EAEAEA" d="M951.881 256.369a5.499 5.499 0 1 1-10.763 2.262 5.499 5.499 0 0 1 10.763-2.262M988.86 256.163a6.498 6.498 0 1 1-12.72 2.674 6.498 6.498 0 0 1 5.023-7.696 6.497 6.497 0 0 1 7.697 5.022M957.946 281.986a2.5 2.5 0 0 1-4.892 1.028 2.5 2.5 0 0 1 4.892-1.028M1007.532 278.109a4.998 4.998 0 1 1-2.423-6.642 4.998 4.998 0 0 1 2.423 6.642M981.766 276.555a2.5 2.5 0 1 1-4.532-2.109 2.5 2.5 0 0 1 4.532 2.109M1023.392 227.24a6.499 6.499 0 1 1-11.785-5.482 6.499 6.499 0 0 1 11.785 5.483M1009.609 252.136a2.5 2.5 0 1 1 3.784-3.271 2.5 2.5 0 0 1-3.784 3.27"/>
        <path stroke="#EAEAEA" stroke-width="1.86" d="M1057.383 275.183a5.499 5.499 0 1 1-5.767-9.365 5.499 5.499 0 0 1 5.767 9.365z"/>
        <path fill="#EAEAEA" d="M1031.021 264.822a2.499 2.499 0 0 1 2.156-2.8 2.5 2.5 0 1 1-2.156 2.8M885.589 278.018a4.999 4.999 0 1 1-9.178 3.964 4.999 4.999 0 0 1 9.178-3.964M909.547 217.32a5.498 5.498 0 1 1-10.094 4.36 5.498 5.498 0 1 1 10.094-4.36M846.465 272.923a6.498 6.498 0 1 1-11.93 5.154 6.498 6.498 0 0 1 11.93-5.154M872.464 269a2.5 2.5 0 1 1 .073-5 2.5 2.5 0 0 1-.073 5M908.795 271.509a2.5 2.5 0 0 1-4.59 1.982 2.5 2.5 0 0 1 4.59-1.982M936.883 230.81a7.498 7.498 0 0 1-14.766-2.62 7.499 7.499 0 1 1 14.766 2.62M932.093 207.566a2.5 2.5 0 1 1 2.816-4.133 2.5 2.5 0 0 1-2.816 4.133"/>
        <path stroke="#EAEAEA" stroke-width="2.79" d="M863.838 215.957a7.5 7.5 0 1 1-14.677 3.085 7.5 7.5 0 0 1 14.677-3.085z"/>
        <path fill="#EAEAEA" d="M826.881 236.368a5.499 5.499 0 1 1-10.762 2.264 5.499 5.499 0 0 1 10.762-2.264M863.86 236.163a6.499 6.499 0 1 1-12.72 2.674 6.499 6.499 0 0 1 12.72-2.674M831.946 261.985a2.499 2.499 0 1 1-4.89 1.03 2.499 2.499 0 0 1 4.89-1.03M882.532 258.11a4.998 4.998 0 0 1-9.065-4.218 5.002 5.002 0 0 1 6.642-2.425 5 5 0 0 1 2.423 6.642M855.766 256.555a2.5 2.5 0 1 1-4.532-2.11 2.5 2.5 0 0 1 4.532 2.11M898.392 207.242a6.498 6.498 0 1 1-11.784-5.483 6.498 6.498 0 0 1 11.784 5.483M883.609 232.135a2.5 2.5 0 1 1 3.781-3.27 2.5 2.5 0 0 1-3.781 3.27"/>
        <path stroke="#EAEAEA" stroke-width="1.86" d="M931.383 255.183a5.499 5.499 0 1 1-5.767-9.365 5.499 5.499 0 0 1 5.767 9.365z"/>
        <path fill="#EAEAEA" d="M906.021 244.823a2.5 2.5 0 1 1 4.957-.646 2.5 2.5 0 0 1-4.957.646M756.59 261.018a4.998 4.998 0 1 1-9.178 3.966 4.998 4.998 0 0 1 9.177-3.966M780.547 199.319a5.498 5.498 0 1 1-10.094 4.36 5.498 5.498 0 0 1 10.095-4.361M718.466 255.923a6.498 6.498 0 1 1-11.932 5.153 6.498 6.498 0 0 1 11.932-5.153M743.463 251a2.5 2.5 0 1 1 .072-4.999 2.5 2.5 0 0 1-.072 4.999M780.794 253.508a2.499 2.499 0 1 1-4.587 1.984 2.499 2.499 0 0 1 4.587-1.984M807.883 213.81a7.499 7.499 0 0 1-8.693 6.073 7.497 7.497 0 0 1-6.073-8.692 7.498 7.498 0 0 1 8.693-6.074 7.498 7.498 0 0 1 6.073 8.693M804.093 189.566a2.5 2.5 0 1 1 3.473-.66 2.5 2.5 0 0 1-3.473.66"/>
        <path stroke="#EAEAEA" stroke-width="2.79" d="M735.838 197.957a7.499 7.499 0 0 1-5.795 8.88 7.498 7.498 0 1 1-3.085-14.675 7.498 7.498 0 0 1 8.88 5.795z"/>
        <path fill="#EAEAEA" d="M697.881 218.369a5.5 5.5 0 1 1-10.76 2.26 5.5 5.5 0 0 1 10.76-2.26M734.86 218.162a6.5 6.5 0 1 1-12.721 2.675 6.5 6.5 0 0 1 12.72-2.675M703.946 244.986a2.5 2.5 0 1 1-4.892 1.028 2.5 2.5 0 0 1 4.892-1.028M753.532 241.109a4.998 4.998 0 1 1-2.423-6.641 4.998 4.998 0 0 1 2.423 6.64M727.766 239.554a2.499 2.499 0 1 1-4.532-2.107 2.499 2.499 0 0 1 4.532 2.107M769.391 190.241a6.498 6.498 0 1 1-3.15-8.633 6.497 6.497 0 0 1 3.15 8.633M755.609 214.135a2.5 2.5 0 1 1 3.781-3.27 2.5 2.5 0 0 1-3.781 3.27"/>
        <path stroke="#EAEAEA" stroke-width="1.86" d="M803.383 237.182a5.5 5.5 0 1 1-5.766-9.365 5.5 5.5 0 0 1 5.766 9.365z"/>
        <path fill="#EAEAEA" d="M777.021 227.823a2.498 2.498 0 0 1 2.156-2.802 2.5 2.5 0 1 1-2.156 2.801M626.589 263.017a4.998 4.998 0 1 1-9.177 3.966 4.998 4.998 0 0 1 9.177-3.966M650.547 201.32a5.498 5.498 0 1 1-7.229-2.868 5.499 5.499 0 0 1 7.23 2.868M588.466 257.923a6.5 6.5 0 0 1-11.931 5.154 6.497 6.497 0 0 1 3.388-8.542 6.497 6.497 0 0 1 8.543 3.388M613.464 254a2.5 2.5 0 1 1 .071-5 2.5 2.5 0 0 1-.071 5M650.795 256.51a2.5 2.5 0 1 1-4.59 1.981 2.5 2.5 0 0 1 4.59-1.982M677.883 215.81a7.497 7.497 0 0 1-8.693 6.073 7.498 7.498 0 0 1-6.073-8.692 7.499 7.499 0 1 1 14.767 2.62M674.093 192.566a2.5 2.5 0 1 1 2.814-4.132 2.5 2.5 0 0 1-2.814 4.132"/>
        <path stroke="#EAEAEA" stroke-width="2.79" d="M605.838 200.956a7.5 7.5 0 1 1-14.678 3.087 7.5 7.5 0 0 1 14.678-3.087z"/>
        <path fill="#EAEAEA" d="M567.881 221.369a5.5 5.5 0 1 1-10.763 2.261 5.5 5.5 0 0 1 10.763-2.261M604.86 221.162a6.498 6.498 0 1 1-12.72 2.676 6.498 6.498 0 1 1 12.719-2.675M573.946 246.986a2.5 2.5 0 1 1-4.893 1.028 2.5 2.5 0 0 1 4.893-1.028M623.532 243.109a4.998 4.998 0 1 1-9.064-4.217 4.998 4.998 0 0 1 9.064 4.217M597.766 241.555a2.5 2.5 0 1 1-4.532-2.11 2.5 2.5 0 0 1 4.532 2.11M639.392 192.24a6.5 6.5 0 1 1-11.785-5.482 6.5 6.5 0 0 1 11.785 5.483M625.609 217.136a2.5 2.5 0 1 1 3.784-3.271 2.5 2.5 0 0 1-3.784 3.27"/>
        <path stroke="#EAEAEA" stroke-width="1.86" d="M673.384 240.183a5.5 5.5 0 1 1-5.765-9.365 5.5 5.5 0 0 1 5.765 9.365z"/>
        <path fill="#EAEAEA" d="M647.021 229.822a2.5 2.5 0 1 1 4.957-.645 2.5 2.5 0 0 1-4.957.645M497.589 270.018a4.999 4.999 0 1 1-9.178 3.964 4.999 4.999 0 0 1 9.178-3.964M520.547 208.32a5.497 5.497 0 0 1-2.866 7.227 5.5 5.5 0 1 1 2.866-7.228M458.466 264.923a6.5 6.5 0 1 1-11.934 5.153 6.5 6.5 0 0 1 11.934-5.153M484.463 261a2.501 2.501 0 1 1 .076-5.002 2.501 2.501 0 0 1-.076 5.002M520.795 263.509a2.501 2.501 0 0 1-1.303 3.286 2.5 2.5 0 1 1 1.303-3.286M547.883 222.81a7.499 7.499 0 1 1-14.766-2.622 7.499 7.499 0 0 1 14.766 2.623M544.092 199.566a2.5 2.5 0 1 1 2.815-4.131 2.5 2.5 0 0 1-2.815 4.13"/>
        <path stroke="#EAEAEA" stroke-width="2.79" d="M475.838 207.957a7.498 7.498 0 1 1-14.676 3.086 7.497 7.497 0 0 1 5.795-8.88 7.498 7.498 0 0 1 8.88 5.794z"/>
        <path fill="#EAEAEA" d="M438.881 228.368a5.498 5.498 0 1 1-10.762 2.264 5.5 5.5 0 0 1 10.762-2.264M475.86 228.163a6.497 6.497 0 0 1-5.022 7.696 6.498 6.498 0 0 1-7.698-5.02 6.499 6.499 0 1 1 12.72-2.675M443.946 253.985a2.5 2.5 0 1 1-4.891 1.03 2.5 2.5 0 0 1 4.891-1.03M494.532 250.108a4.998 4.998 0 0 1-6.64 2.424 4.998 4.998 0 1 1 4.217-9.065 5 5 0 0 1 2.423 6.641M467.766 248.555a2.499 2.499 0 1 1-4.531-2.108 2.499 2.499 0 0 1 4.531 2.108M509.392 199.242a6.498 6.498 0 1 1-11.783-5.483 6.498 6.498 0 0 1 11.783 5.483M495.609 224.135a2.5 2.5 0 1 1 3.781-3.27 2.5 2.5 0 0 1-3.781 3.27"/>
        <path stroke="#EAEAEA" stroke-width="1.86" d="M543.383 247.183a5.499 5.499 0 1 1-5.767-9.365 5.499 5.499 0 0 1 5.767 9.365z"/>
        <path fill="#EAEAEA" d="M517.021 236.823a2.5 2.5 0 1 1 4.957-.647 2.5 2.5 0 0 1-4.957.647M367.589 283.018a4.998 4.998 0 1 1-9.178 3.964 4.998 4.998 0 1 1 9.178-3.964M391.547 221.32a5.497 5.497 0 0 1-2.867 7.227 5.498 5.498 0 1 1-4.36-10.095 5.5 5.5 0 0 1 7.227 2.868M329.465 277.923a6.499 6.499 0 1 1-11.931 5.154 6.499 6.499 0 0 1 11.931-5.154M354.463 273a2.5 2.5 0 1 1 .074-5 2.5 2.5 0 0 1-.074 5M391.794 275.509a2.5 2.5 0 1 1-4.59 1.983 2.5 2.5 0 0 1 4.59-1.983M418.883 235.81a7.498 7.498 0 0 1-8.693 6.073 7.5 7.5 0 1 1 8.694-6.073M415.092 211.566a2.5 2.5 0 1 1 2.815-4.131 2.5 2.5 0 0 1-2.815 4.13"/>
        <path stroke="#EAEAEA" stroke-width="2.79" d="M346.838 219.957a7.498 7.498 0 1 1-14.676 3.086 7.497 7.497 0 0 1 5.795-8.88 7.498 7.498 0 0 1 8.881 5.794z"/>
        <path fill="#EAEAEA" d="M308.881 240.368a5.5 5.5 0 0 1-10.762 2.264 5.5 5.5 0 0 1 10.762-2.264M345.86 240.163a6.497 6.497 0 0 1-5.022 7.696 6.498 6.498 0 1 1-2.675-12.719 6.499 6.499 0 0 1 7.697 5.023M314.946 266.985a2.5 2.5 0 1 1-4.893 1.028 2.5 2.5 0 0 1 4.893-1.028M364.532 263.108a4.997 4.997 0 0 1-6.64 2.424 5 5 0 0 1 4.218-9.065 5 5 0 0 1 2.422 6.641M338.766 261.555a2.5 2.5 0 1 1-4.532-2.109 2.5 2.5 0 0 1 4.532 2.109M380.392 212.242a6.499 6.499 0 1 1-11.784-5.484 6.499 6.499 0 0 1 11.784 5.484M366.609 236.135a2.5 2.5 0 1 1 3.78-3.27 2.5 2.5 0 0 1-3.78 3.27"/>
        <path stroke="#EAEAEA" stroke-width="1.86" d="M413.383 259.183a5.499 5.499 0 1 1-5.767-9.365 5.499 5.499 0 0 1 5.767 9.365z"/>
        <path fill="#EAEAEA" d="M388.021 249.823a2.5 2.5 0 1 1 4.959-.645 2.5 2.5 0 0 1-4.959.645M239.589 304.018a4.998 4.998 0 1 1-9.178 3.964 4.998 4.998 0 0 1 9.178-3.964M263.547 242.32a5.497 5.497 0 0 1-2.867 7.227 5.498 5.498 0 1 1-4.36-10.095 5.5 5.5 0 0 1 7.227 2.868M201.465 297.922a6.5 6.5 0 1 1-11.933 5.155 6.5 6.5 0 0 1 11.933-5.155M226.463 294a2.501 2.501 0 1 1 .076-5.002 2.501 2.501 0 0 1-.076 5.002M263.795 296.51a2.5 2.5 0 0 1-1.303 3.285 2.5 2.5 0 0 1-1.983-4.59 2.5 2.5 0 0 1 3.286 1.304M290.883 256.811a7.497 7.497 0 0 1-8.693 6.072 7.5 7.5 0 1 1 8.694-6.072M286.092 232.566a2.5 2.5 0 1 1 2.815-4.13 2.5 2.5 0 0 1-2.815 4.13"/>
        <path stroke="#EAEAEA" stroke-width="2.79" d="M217.838 240.956a7.5 7.5 0 1 1-14.678 3.087 7.5 7.5 0 0 1 14.678-3.087z"/>
        <path fill="#EAEAEA" d="M180.881 261.368a5.499 5.499 0 1 1-10.762 2.264 5.499 5.499 0 0 1 10.762-2.264M217.86 261.163a6.497 6.497 0 0 1-5.022 7.696 6.498 6.498 0 0 1-7.698-5.022 6.499 6.499 0 1 1 12.72-2.674M185.946 287.986a2.5 2.5 0 1 1-4.892 1.028 2.5 2.5 0 0 1 4.892-1.028M236.532 284.108a4.997 4.997 0 0 1-6.64 2.424 5 5 0 0 1 4.218-9.065 5 5 0 0 1 2.422 6.641M209.766 282.555a2.5 2.5 0 1 1-4.532-2.109 2.5 2.5 0 0 1 4.532 2.109M252.392 233.24a6.498 6.498 0 1 1-11.784-5.48 6.498 6.498 0 0 1 11.784 5.48M237.609 257.136a2.5 2.5 0 1 1 3.782-3.27 2.5 2.5 0 0 1-3.782 3.27"/>
        <path stroke="#EAEAEA" stroke-width="1.86" d="M285.383 280.183a5.499 5.499 0 1 1-5.767-9.365 5.499 5.499 0 0 1 5.767 9.365z"/>
        <path fill="#EAEAEA" d="M260.021 270.822a2.5 2.5 0 1 1 4.958-.644 2.5 2.5 0 0 1-4.958.644M111.589 329.017a4.998 4.998 0 1 1-9.177 3.966 4.998 4.998 0 0 1 9.177-3.966M135.547 267.32a5.498 5.498 0 1 1-7.229-2.868 5.499 5.499 0 0 1 7.23 2.868M73.466 323.923a6.5 6.5 0 0 1-11.931 5.154 6.497 6.497 0 0 1 3.388-8.542 6.497 6.497 0 0 1 8.543 3.388M98.464 320a2.5 2.5 0 1 1 .071-5 2.5 2.5 0 0 1-.071 5M135.795 322.51a2.5 2.5 0 1 1-4.59 1.981 2.5 2.5 0 0 1 4.59-1.982M162.883 281.81a7.497 7.497 0 0 1-8.693 6.073 7.498 7.498 0 0 1-6.073-8.692 7.499 7.499 0 1 1 14.767 2.62M159.093 258.566a2.5 2.5 0 1 1 2.814-4.132 2.5 2.5 0 0 1-2.814 4.132"/>
        <path stroke="#EAEAEA" stroke-width="2.79" d="M90.838 266.956a7.5 7.5 0 1 1-14.678 3.087 7.5 7.5 0 0 1 14.678-3.087z"/>
        <path fill="#EAEAEA" d="M52.881 287.369a5.5 5.5 0 1 1-10.763 2.261 5.5 5.5 0 0 1 10.763-2.261M89.86 287.162a6.498 6.498 0 1 1-12.72 2.676 6.498 6.498 0 1 1 12.719-2.675M58.946 312.986a2.5 2.5 0 1 1-4.891 1.03 2.5 2.5 0 0 1 4.89-1.03M108.532 309.109a4.998 4.998 0 1 1-9.064-4.217 4.998 4.998 0 0 1 9.064 4.217M82.766 307.555a2.5 2.5 0 1 1-4.532-2.11 2.5 2.5 0 0 1 4.532 2.11M124.392 258.24a6.499 6.499 0 1 1-11.785-5.482 6.499 6.499 0 0 1 11.785 5.483M110.609 283.136a2.5 2.5 0 1 1 3.783-3.27 2.5 2.5 0 0 1-3.783 3.27"/>
        <path stroke="#EAEAEA" stroke-width="1.86" d="M158.384 306.183a5.5 5.5 0 1 1-5.765-9.365 5.5 5.5 0 0 1 5.765 9.365z"/>
        <path fill="#EAEAEA" d="M132.021 295.823a2.5 2.5 0 1 1 4.957-.646 2.5 2.5 0 0 1-4.957.646M9.547 298.32a5.498 5.498 0 1 1-7.229-2.868 5.499 5.499 0 0 1 7.23 2.868M9.795 352.51a2.5 2.5 0 1 1-4.59 1.981 2.5 2.5 0 0 1 4.59-1.982M36.883 312.81a7.498 7.498 0 0 1-8.693 6.073 7.5 7.5 0 1 1 8.693-6.073M33.093 288.566a2.5 2.5 0 1 1 2.814-4.132 2.5 2.5 0 0 1-2.814 4.132"/>
        <path stroke="#EAEAEA" stroke-width="1.86" d="M31.384 336.183a5.5 5.5 0 1 1-5.766-9.365 5.5 5.5 0 0 1 5.766 9.365z"/>
        <path fill="#EAEAEA" d="M6.021 326.823a2.5 2.5 0 1 1 4.957-.646 2.5 2.5 0 0 1-4.957.646"/>
    </g>
</svg>
