<svg xmlns="http://www.w3.org/2000/svg" width="19" height="15" viewBox="0 0 19 15">
    <g fill="#FFF" fill-rule="evenodd">
        <path d="M9.5 3L3.012 8.555a.24.24 0 0 1-.006.035.138.138 0 0 0-.006.035v5.624c0 .204.072.38.215.528a.682.682 0 0 0 .508.223h4.333v-4.5h2.889V15h4.332a.682.682 0 0 0 .508-.223.735.735 0 0 0 .215-.528V8.625a.162.162 0 0 0-.012-.07L9.5 3z"/>
        <path d="M18.868 6.622l-2.58-1.928V.37a.314.314 0 0 0-.106-.244.39.39 0 0 0-.271-.094h-2.263c-.11 0-.2.031-.272.094a.317.317 0 0 0-.105.244v2.066L10.396.276A1.472 1.472 0 0 0 9.5 0c-.347 0-.646.092-.897.276L.131 6.622a.302.302 0 0 0-.13.227.319.319 0 0 0 .083.25l.73.784a.415.415 0 0 0 .248.116.47.47 0 0 0 .283-.074L9.5 1.812l8.155 6.113c.063.05.145.074.248.074h.035a.409.409 0 0 0 .247-.116l.73-.785A.32.32 0 0 0 19 6.85a.303.303 0 0 0-.13-.227"/>
    </g>
</svg>
