<svg xmlns="http://www.w3.org/2000/svg" width="513" height="512" viewBox="0 0 513 512">
    <g fill="none" fill-rule="nonzero">
        <path fill="#9D27B0" d="M85.333 307.2v179.2c0 9.426-8.059 17.067-18 17.067h-45c-9.928-.028-17.97-7.653-18-17.067V307.2c.03-9.414 8.072-17.039 18-17.067h45c9.93.028 17.97 7.653 18 17.067z"/>
        <path fill="#FFE0B2" d="M492.203 388.864l-159.915 97.365a59.733 59.733 0 0 1-31.061 8.704H83.029a17.067 17.067 0 0 0 2.304-8.533V307.2h23.552a76.51 76.51 0 0 1 48.043 17.067 76.27 76.27 0 0 0 47.957 17.066h44.032a41.813 41.813 0 0 1 36.096 20.736l.768 1.28c7.172 12.168 5.282 27.634-4.608 37.718h22.699a33.562 33.562 0 0 0 10.837-1.792l157.952-52.651a23.51 23.51 0 0 1 26.112 8.192v.085a23.296 23.296 0 0 1-6.57 33.963z"/>
        <path fill="#DFC49C" d="M498.773 354.901v-.085a23.51 23.51 0 0 0-26.112-8.192l-6.391 2.133a23.339 23.339 0 0 1 6.903 6.059v.085a23.296 23.296 0 0 1-6.57 33.963l-159.915 97.365a59.733 59.733 0 0 1-31.061 8.704h25.6a59.733 59.733 0 0 0 31.061-8.704l159.915-97.365a23.296 23.296 0 0 0 6.57-33.963z"/>
        <path fill="#FFDC00" d="M443.648 114.347a110.933 110.933 0 0 1-43.435 93.269 81.502 81.502 0 0 0-33.28 64.512v.939h-68.266v-.939a81.067 81.067 0 0 0-32.854-64.256c-38.635-29.28-53.783-80.256-37.408-125.884 16.375-45.627 60.48-75.338 108.918-73.37 57.29 2.809 103.194 48.455 106.325 105.729z"/>
        <path fill="#FEC108" d="M337.323 8.619c-5.7-.18-11.406.076-17.067.768 44.852 5.288 82.015 37.248 93.959 80.802 11.943 43.555-3.72 90-39.602 117.427a81.502 81.502 0 0 0-33.28 64.512v.939h25.6v-.939a81.502 81.502 0 0 1 33.28-64.512c37.15-28.38 52.521-77.006 38.433-121.583-14.088-44.577-54.61-75.538-101.323-77.414z"/>
        <path fill="#7F8E94" d="M384 290.133c-.028 9.414-7.653 17.039-17.067 17.067h-68.266c-9.426 0-17.067-7.641-17.067-17.067 0-9.425 7.641-17.066 17.067-17.066h68.266c9.414.028 17.039 7.652 17.067 17.066z"/>
        <path fill="#545C60" d="M366.933 273.067h-25.6c9.426 0 17.067 7.64 17.067 17.066 0 9.426-7.641 17.067-17.067 17.067h25.6c9.426 0 17.067-7.641 17.067-17.067 0-9.425-7.641-17.066-17.067-17.066z"/>
        <path fill="#607D8B" d="M366.933 307.2v8.533c0 18.852-15.282 34.134-34.133 34.134-18.851 0-34.133-15.282-34.133-34.134V307.2h68.266z"/>
        <g fill="#000">
            <path d="M25.6 512h42.667a25.207 25.207 0 0 0 18.875-8.533h214.085a68.173 68.173 0 0 0 35.498-9.95l159.915-97.348c13.927-8.424 19.295-25.971 12.465-40.745-6.83-14.774-23.676-22.051-39.115-16.898-179.985 59.742-157.132 54.007-173.644 54.007 10.043-28.254-15.104-59.733-47.429-59.733h-44.032a67.874 67.874 0 0 1-42.598-15.172c-25.549-20.608-49.135-18.961-69.99-18.961a25.6 25.6 0 0 0-24.03-17.067H25.6C11.462 281.6 0 293.062 0 307.2v179.2C0 500.538 11.462 512 25.6 512zm125.952-181.103a84.975 84.975 0 0 0 53.333 18.97h44.032c22.477 0 41.472 24.593 28.288 42.666h-49.194a85.53 85.53 0 0 0-47.335 14.328l-6.238 4.181a8.533 8.533 0 0 0 4.762 15.625c3.277 0 4.437-1.272 10.931-5.607a68.079 68.079 0 0 1 37.88-11.46h75.861c9.643 0 .068 2.176 171.46-54.87a14.89 14.89 0 0 1 12.425 26.847l-159.915 97.365a51.132 51.132 0 0 1-26.615 7.458H93.867V315.733h15.018a68.267 68.267 0 0 1 42.667 15.164zM17.067 307.2a8.533 8.533 0 0 1 8.533-8.533h42.667A8.533 8.533 0 0 1 76.8 307.2v179.2a8.533 8.533 0 0 1-8.533 8.533H25.6a8.533 8.533 0 0 1-8.533-8.533V307.2z"/>
            <path d="M337.673.102c-52.176-2.14-99.695 29.856-117.337 79.005-17.643 49.149-1.32 104.06 40.306 135.592a72.388 72.388 0 0 1 29.133 51.541 25.472 25.472 0 0 0 .358 47.923c0 23.564 19.103 42.667 42.667 42.667s42.667-19.103 42.667-42.667a25.48 25.48 0 0 0 .358-47.949 73.583 73.583 0 0 1 29.508-51.823c39.988-30.558 56.536-82.9 41.383-130.892C431.563 35.507 387.958 2.158 337.673.102zM332.8 341.333c-14.138 0-25.6-11.461-25.6-25.6h51.2c0 14.139-11.462 25.6-25.6 25.6zm34.133-42.666h-68.266a8.533 8.533 0 0 1 0-17.067h68.266a8.533 8.533 0 0 1 0 17.067zm28.058-97.835a90.607 90.607 0 0 0-36.25 63.701h-51.874a89.43 89.43 0 0 0-35.908-63.436c-35.684-27.026-49.679-74.098-34.555-116.229 15.124-42.13 55.86-69.555 100.586-67.716 43.11 1.748 80.499 30.329 93.496 71.47 12.996 41.14-1.188 86.014-35.47 112.21h-.025z"/>
            <circle cx="332.8" cy="213.333" r="8.533"/>
            <path d="M345.557 52.531a59.793 59.793 0 0 0-72.49 58.402 8.533 8.533 0 0 0 17.066 0c.003-22.768 17.883-41.522 40.625-42.612 22.742-1.09 42.333 15.87 44.513 38.533 2.18 22.664-13.82 43.046-36.353 46.31a17.118 17.118 0 0 0-14.651 16.837v9.199a8.533 8.533 0 0 0 17.066 0v-9.14c28.652-4.06 50.272-28.076 51.311-56.996 1.04-28.92-18.8-54.425-47.087-60.533z"/>
        </g>
    </g>
</svg>
