<?xml version="1.0" encoding="utf-8"?>
<!-- Generator: Adobe Illustrator 16.0.0, SVG Export Plug-In . SVG Version: 6.00 Build 0)  -->
<!DOCTYPE svg PUBLIC "-//W3C//DTD SVG 1.1//EN" "http://www.w3.org/Graphics/SVG/1.1/DTD/svg11.dtd">
<svg version="1.1" id="圖層_1" xmlns="http://www.w3.org/2000/svg" xmlns:xlink="http://www.w3.org/1999/xlink" x="0px" y="0px"
	 width="397.192px" height="203.03px" viewBox="0 0 397.192 203.03" enable-background="new 0 0 397.192 203.03"
	 xml:space="preserve">
<g>
	<path fill="#F5C720" d="M65.717,77.057c0,2.771,2.251,5.025,5.022,5.025c2.768,0,5.02-2.254,5.02-5.025
		c0-2.769-2.251-5.021-5.02-5.021C67.968,72.037,65.717,74.289,65.717,77.057"/>
	<path fill="#F5C720" d="M113.789,74.044c0-2.771-2.257-5.02-5.027-5.02c-2.769,0-5.015,2.248-5.015,5.02
		c0,2.774,2.246,5.024,5.015,5.024C111.532,79.069,113.789,76.819,113.789,74.044"/>
	<path fill="#F5C720" d="M104.319,105.033c43.092-7.037,48.676-51.943,26.316-77.397C108.097,1.958,64.431-2.322,35.078,15.826
		C19.475,25.472,6.06,42.066,6.06,61.336c0,0.349,0.047,0.684,0.057,1.028c-0.069,2.82,0.33,5.739,1.114,8.753
		c0.923,3.938,2.383,7.66,4.308,11.099c14.324,28.855,50.178,57.861,46.155,81.476l5.832-3.335c-0.01-21.738-8.2-36.24-24.06-57.392
		c-10.102-13.478-18.573-26.312-19.219-37.82c-0.125-2.255,0.035-4.414,0.32-6.524c2.751-20.692,19.407-33.648,38.924-38.531
		c31.578-7.896,70.676,5.373,70.676,41.524c0,20.14-14.642,36.816-33.848,40.079C96.383,105.413,101.698,105.457,104.319,105.033"/>
</g>
<path fill="#F5C720" d="M116.701,147.312c0.737,3.134-1.198,6.279-4.335,7.021l-50.112,12.504c-3.136,0.742-6.286-1.19-7.023-4.332
	l0,0c-0.747-3.133,1.202-6.28,4.338-7.018l50.107-12.512C112.817,142.229,115.963,144.173,116.701,147.312L116.701,147.312z"/>
<path fill="#F5C720" d="M116.328,166.878c0.741,3.138-1.194,6.28-4.335,7.02l-36.33,8.883c-3.136,0.738-6.277-1.197-7.022-4.327l0,0
	c-0.742-3.144,1.191-6.28,4.332-7.03l36.327-8.873C112.436,161.805,115.584,163.741,116.328,166.878L116.328,166.878z"/>
<path fill="#F5C720" d="M92.076,198.446c8.174,0,14.803-6.623,14.803-14.806c0-0.337-0.069-0.646-0.092-0.972l-28.36,6.715
	C80.67,194.712,85.942,198.446,92.076,198.446z"/>
<g>
	<path fill="#F5C720" d="M376.71,149.627c-1.169,12.232-6.187,25.637-21.521,27.165c-8.634,0.864-13.649-2.218-17.068-7.051
		c6.695-4.944,13.107-11.42,17.488-19.721c4.447-7.715,6.197-16.453,5.434-24.05c-1.173-11.794-8.661-19.19-19.673-18.093
		c-15.141,1.506-28.223,21.676-25.733,46.645c0.423,4.243,1.347,8.108,2.634,11.629c-0.016,0.011-0.03,0.025-0.045,0.04
		l-0.145-0.218c-1.424,2.132-9.729,5.455-9.729,5.455c-0.631,0.297-1.246,0.504-1.862,0.757c-0.619,0.186-1.242,0.404-1.854,0.534
		c0.594-2.177,0.986-4.747,0.986-7.114c0-18.771-12.05-25.89-21.334-42.29c0.192-1.184,4.74-7.708,4.74-13.435
		c0-6.951-7.782-10.812-13.979-9.198c-6.576,1.702-9.929,9.269-9.929,15.92c0,3.355,1.183,6.323,3.159,9.279
		c-3.557,10.474-6.913,23.512-8.887,32.206c-0.282,0.76-0.522,1.55-0.679,2.37c-0.319,1.546-0.671,3.156-1.079,4.759
		c-0.742-0.249-1.373-0.405-1.81-0.405c-3.316,0-7.188,6.105-4.536,13.13c-1.429,1.184-3.12,1.893-5.145,1.893
		c-5.134,0-5.134-7.314-5.134-9.096v-40.902c0-9.088-3.16-19.955-16.401-19.955c-9.681,0-16.795,8.498-22.136,19.562v-8.892
		c0-4.743-4.146-8.694-10.667-8.694c-2.767,0-5.134,1.384-5.134,3.357c0,1.383,0.787,2.573,0.787,6.323v33.393
		c-2.366,12.055-8.687,24.903-24.109,24.903c-10.274,0-15.607-5.535-18.375-12.255c19.169-5.73,29.25-23.118,29.25-37.743
		c0-11.854-6.721-19.955-17.788-19.955c-15.207,0-30.229,18.771-30.229,43.863c0,2.188,0.171,4.258,0.43,6.275l3.127,11.661
		c0.738,0-0.664,0.2,0,0c5.9,13.579,18.386,21.19,31.419,21.19c12.076,0,20.459-4.159,26.275-9.855v1.161
		c0,7.31,5.533,8.694,9.487,8.694c5.73,0,5.526-4.74,5.526-8.498v-28.849c1.388-15.607,13.642-32.603,19.373-32.603
		c3.749,0,4.146,5.141,4.146,11.265v40.112c0,10.074,6.127,18.572,16.598,18.572c6.432,0,11.554-2.549,15.63-6.421
		c4.666,3.238,12.396,6.421,19.343,6.421c8.104,0,14.625-2.964,19.365-7.111c4.629-0.299,8.656-1.023,12.217-2.069l-0.085,0.082
		c0,0,6.962-1.722,15.797-6.046c7.536,9.051,18.575,13.345,29.461,12.263c28.904-2.878,34.394-27.459,34.579-39.591
		C388.998,143.441,377.596,140.608,376.71,149.627 M142.414,153.155c-0.396-8.297,2.562-30.035,12.252-30.035
		c2.565,0,4.146,2.57,4.146,6.917c0,11.857-6.321,22.128-16.201,26.675C142.611,155.525,142.414,154.338,142.414,153.155
		 M288.334,175.291c-9.713-0.482-17.258-3.962-19.95-5.385c1.008-2.689,1.824-5.36,2.463-7.86
		c2.574-9.483,3.754-17.981,6.921-25.685c6.913,7.114,14.224,15.411,14.224,27.858C291.992,168.625,290.249,172.63,288.334,175.291
		 M331.375,151.49c-1.213-8.219-0.101-29.302,9.544-30.263c2.552-0.256,4.376,2.144,4.81,6.469
		c1.173,11.799-4.261,23.986-13.646,29.49C331.968,156.007,331.494,152.668,331.375,151.49"/>
	<g>
		<defs>
			<path id="SVGID_1_" d="M158.486,125.778c3.167,16.135-6.963,24.369-6.963,24.369c-1.902,3.798-8.912,6.562-8.912,6.562
				s0.366,5.151,2.365,10.871c0,0,7.497-1.921,12.56-6.357c0,0,18.991-12.656,15.192-36.713L158.486,125.778z"/>
		</defs>
		<clipPath id="SVGID_2_">
			<use xlink:href="#SVGID_1_"  overflow="visible"/>
		</clipPath>
		<defs>
			<filter id="Adobe_OpacityMaskFilter" filterUnits="userSpaceOnUse" x="122.73" y="108.854" width="73.677" height="74.377">
				<feColorMatrix  type="matrix" values="1 0 0 0 0  0 1 0 0 0  0 0 1 0 0  0 0 0 1 0"/>
			</filter>
		</defs>
		<mask maskUnits="userSpaceOnUse" x="122.73" y="108.854" width="73.677" height="74.377" id="SVGID_3_">
			<g filter="url(#Adobe_OpacityMaskFilter)">
				
					<linearGradient id="SVGID_4_" gradientUnits="userSpaceOnUse" x1="-222.5195" y1="420.1528" x2="-218.7201" y2="420.1528" gradientTransform="matrix(-13.7473 9.1649 9.1649 13.7473 -6722.8394 -3608.7661)">
					<stop  offset="0" style="stop-color:#000000"/>
					<stop  offset="0.123" style="stop-color:#000000"/>
					<stop  offset="0.8163" style="stop-color:#FFFFFF"/>
					<stop  offset="1" style="stop-color:#FFFFFF"/>
				</linearGradient>
				<polygon clip-path="url(#SVGID_2_)" fill="url(#SVGID_4_)" points="196.407,154.327 153.043,183.231 122.73,137.758 
					166.088,108.854 				"/>
			</g>
		</mask>
		
			<linearGradient id="SVGID_5_" gradientUnits="userSpaceOnUse" x1="-222.5195" y1="420.1528" x2="-218.7201" y2="420.1528" gradientTransform="matrix(-13.7473 9.1649 9.1649 13.7473 -6722.8394 -3608.7661)">
			<stop  offset="0" style="stop-color:#F5C720"/>
			<stop  offset="0.123" style="stop-color:#F5C720"/>
			<stop  offset="0.8163" style="stop-color:#F5A917"/>
			<stop  offset="1" style="stop-color:#F5A917"/>
		</linearGradient>
		<polygon clip-path="url(#SVGID_2_)" mask="url(#SVGID_3_)" fill="url(#SVGID_5_)" points="196.407,154.327 153.043,183.231 
			122.73,137.758 166.088,108.854 		"/>
	</g>
	<g>
		<defs>
			<path id="SVGID_6_" d="M231.438,188.757c15.192,10.92,26.586-2.373,26.586-2.373c-5.696-4.985-6.405-8.309-6.405-8.309
				s-10.444,7.359-10.607-7.333L231.438,188.757z"/>
		</defs>
		<clipPath id="SVGID_7_">
			<use xlink:href="#SVGID_6_"  overflow="visible"/>
		</clipPath>
		<defs>
			<filter id="Adobe_OpacityMaskFilter_1_" filterUnits="userSpaceOnUse" x="229.803" y="169.242" width="29.854" height="31.938">
				<feColorMatrix  type="matrix" values="1 0 0 0 0  0 1 0 0 0  0 0 1 0 0  0 0 0 1 0"/>
			</filter>
		</defs>
		<mask maskUnits="userSpaceOnUse" x="229.803" y="169.242" width="29.854" height="31.938" id="SVGID_8_">
			<g filter="url(#Adobe_OpacityMaskFilter_1_)">
				
					<linearGradient id="SVGID_9_" gradientUnits="userSpaceOnUse" x1="-194.4473" y1="374.0415" x2="-190.6476" y2="374.0415" gradientTransform="matrix(8.6563 0.49 0.49 -8.6563 1730.7161 3517.5146)">
					<stop  offset="0" style="stop-color:#000000"/>
					<stop  offset="0.0051" style="stop-color:#000000"/>
					<stop  offset="0.6553" style="stop-color:#FFFFFF"/>
					<stop  offset="1" style="stop-color:#FFFFFF"/>
				</linearGradient>
				<polygon clip-path="url(#SVGID_7_)" fill="url(#SVGID_9_)" points="231.524,169.242 259.657,170.835 257.939,201.179 
					229.803,199.588 				"/>
			</g>
		</mask>
		
			<linearGradient id="SVGID_10_" gradientUnits="userSpaceOnUse" x1="-194.4473" y1="374.0415" x2="-190.6476" y2="374.0415" gradientTransform="matrix(8.6563 0.49 0.49 -8.6563 1730.7161 3517.5146)">
			<stop  offset="0" style="stop-color:#F5C720"/>
			<stop  offset="0.0051" style="stop-color:#F5C720"/>
			<stop  offset="0.6553" style="stop-color:#F5A917"/>
			<stop  offset="1" style="stop-color:#F5A917"/>
		</linearGradient>
		<polygon clip-path="url(#SVGID_7_)" mask="url(#SVGID_8_)" fill="url(#SVGID_10_)" points="231.524,169.242 259.657,170.835 
			257.939,201.179 229.803,199.588 		"/>
	</g>
	<g>
		<defs>
			<path id="SVGID_11_" d="M260.639,187.809c21.839,12.343,36.29-2.049,36.29-2.049s-8.754,2.049-19.198-2.699
				c0,0-7.363,4.272-15.908-2.136L260.639,187.809z"/>
		</defs>
		<clipPath id="SVGID_12_">
			<use xlink:href="#SVGID_11_"  overflow="visible"/>
		</clipPath>
		<defs>
			<filter id="Adobe_OpacityMaskFilter_2_" filterUnits="userSpaceOnUse" x="254.449" y="169.245" width="48.671" height="42.591">
				<feColorMatrix  type="matrix" values="1 0 0 0 0  0 1 0 0 0  0 0 1 0 0  0 0 0 1 0"/>
			</filter>
		</defs>
		<mask maskUnits="userSpaceOnUse" x="254.449" y="169.245" width="48.671" height="42.591" id="SVGID_13_">
			<g filter="url(#Adobe_OpacityMaskFilter_2_)">
				
					<linearGradient id="SVGID_14_" gradientUnits="userSpaceOnUse" x1="-199.1479" y1="350.0376" x2="-195.3497" y2="350.0376" gradientTransform="matrix(6 -2.1875 -2.1875 -6 2233.6338 1857.228)">
					<stop  offset="0" style="stop-color:#000000"/>
					<stop  offset="0.0051" style="stop-color:#000000"/>
					<stop  offset="0.8163" style="stop-color:#FFFFFF"/>
					<stop  offset="1" style="stop-color:#FFFFFF"/>
				</linearGradient>
				<polygon clip-path="url(#SVGID_12_)" fill="url(#SVGID_14_)" points="254.449,183.18 292.671,169.245 303.12,197.897 
					264.897,211.835 				"/>
			</g>
		</mask>
		
			<linearGradient id="SVGID_15_" gradientUnits="userSpaceOnUse" x1="-199.1499" y1="350.0376" x2="-195.3517" y2="350.0376" gradientTransform="matrix(6 -2.1875 -2.1875 -6 2233.6357 1857.228)">
			<stop  offset="0" style="stop-color:#F5C720"/>
			<stop  offset="0.0051" style="stop-color:#F5C720"/>
			<stop  offset="0.8163" style="stop-color:#F5A917"/>
			<stop  offset="1" style="stop-color:#F5A917"/>
		</linearGradient>
		<polygon clip-path="url(#SVGID_12_)" mask="url(#SVGID_13_)" fill="url(#SVGID_15_)" points="254.449,183.18 292.671,169.245 
			303.12,197.897 264.897,211.835 		"/>
	</g>
	<g>
		<defs>
			<path id="SVGID_16_" d="M166.4,179.737l8.783,10.683c6.172-1.425,12.277-7.358,12.277-7.358v-28.126
				C187.46,154.935,184.678,177.838,166.4,179.737"/>
		</defs>
		<clipPath id="SVGID_17_">
			<use xlink:href="#SVGID_16_"  overflow="visible"/>
		</clipPath>
		<defs>
			<filter id="Adobe_OpacityMaskFilter_3_" filterUnits="userSpaceOnUse" x="154.981" y="148.159" width="43.899" height="49.041">
				<feColorMatrix  type="matrix" values="1 0 0 0 0  0 1 0 0 0  0 0 1 0 0  0 0 0 1 0"/>
			</filter>
		</defs>
		<mask maskUnits="userSpaceOnUse" x="154.981" y="148.159" width="43.899" height="49.041" id="SVGID_18_">
			<g filter="url(#Adobe_OpacityMaskFilter_3_)">
				
					<linearGradient id="SVGID_19_" gradientUnits="userSpaceOnUse" x1="-213.98" y1="372.3501" x2="-210.1819" y2="372.3501" gradientTransform="matrix(9.1532 -3.3371 -3.3371 -9.1532 3365.0024 2871.5918)">
					<stop  offset="0" style="stop-color:#000000"/>
					<stop  offset="0.0051" style="stop-color:#000000"/>
					<stop  offset="0.5458" style="stop-color:#FFFFFF"/>
					<stop  offset="1" style="stop-color:#FFFFFF"/>
				</linearGradient>
				<polygon clip-path="url(#SVGID_17_)" fill="url(#SVGID_19_)" points="154.981,159.1 184.99,148.159 198.88,186.258 
					168.871,197.2 				"/>
			</g>
		</mask>
		
			<linearGradient id="SVGID_20_" gradientUnits="userSpaceOnUse" x1="-213.9785" y1="372.3521" x2="-210.1783" y2="372.3521" gradientTransform="matrix(9.1532 -3.3371 -3.3371 -9.1532 3364.9946 2871.5996)">
			<stop  offset="0" style="stop-color:#F5C720"/>
			<stop  offset="0.0051" style="stop-color:#F5C720"/>
			<stop  offset="0.5458" style="stop-color:#F5A917"/>
			<stop  offset="1" style="stop-color:#F5A917"/>
		</linearGradient>
		<polygon clip-path="url(#SVGID_17_)" mask="url(#SVGID_18_)" fill="url(#SVGID_20_)" points="154.981,159.1 184.99,148.159 
			198.88,186.258 168.871,197.2 		"/>
	</g>
	<g>
		<defs>
			<path id="SVGID_21_" d="M291.258,159.085c2.373,11.398-3.616,17.188-3.616,17.188s12.637-0.809,16.994-3.553
				c0,0,3.004-9.125-1.506-20.519L291.258,159.085z"/>
		</defs>
		<clipPath id="SVGID_22_">
			<use xlink:href="#SVGID_21_"  overflow="visible"/>
		</clipPath>
		<defs>
			<filter id="Adobe_OpacityMaskFilter_4_" filterUnits="userSpaceOnUse" x="286.203" y="151.007" width="22.877" height="26.46">
				<feColorMatrix  type="matrix" values="1 0 0 0 0  0 1 0 0 0  0 0 1 0 0  0 0 0 1 0"/>
			</filter>
		</defs>
		<mask maskUnits="userSpaceOnUse" x="286.203" y="151.007" width="22.877" height="26.46" id="SVGID_23_">
			<g filter="url(#Adobe_OpacityMaskFilter_4_)">
				
					<linearGradient id="SVGID_24_" gradientUnits="userSpaceOnUse" x1="-184.7231" y1="447.2534" x2="-180.9256" y2="447.2534" gradientTransform="matrix(-0.375 6.25 6.25 0.375 -2566.5303 1143.8196)">
					<stop  offset="0" style="stop-color:#000000"/>
					<stop  offset="0.0051" style="stop-color:#000000"/>
					<stop  offset="0.8163" style="stop-color:#FFFFFF"/>
					<stop  offset="1" style="stop-color:#FFFFFF"/>
				</linearGradient>
				<polygon clip-path="url(#SVGID_22_)" fill="url(#SVGID_24_)" points="309.08,152.287 307.566,177.467 286.203,176.185 
					287.715,151.007 				"/>
			</g>
		</mask>
		
			<linearGradient id="SVGID_25_" gradientUnits="userSpaceOnUse" x1="-184.7217" y1="447.2544" x2="-180.9224" y2="447.2544" gradientTransform="matrix(-0.375 6.25 6.25 0.375 -2566.5342 1143.8157)">
			<stop  offset="0" style="stop-color:#F5C720"/>
			<stop  offset="0.0051" style="stop-color:#F5C720"/>
			<stop  offset="0.8163" style="stop-color:#F5A917"/>
			<stop  offset="1" style="stop-color:#F5A917"/>
		</linearGradient>
		<polygon clip-path="url(#SVGID_22_)" mask="url(#SVGID_23_)" fill="url(#SVGID_25_)" points="309.08,152.287 307.566,177.467 
			286.203,176.185 287.715,151.007 		"/>
	</g>
	<g>
		<defs>
			<path id="SVGID_26_" d="M263.006,142.707l11.16,5.222c0.716-4.272,3.602-11.564,3.602-11.564
				c-7.322-6.587-9.488-10.475-9.488-10.475S263.722,140.574,263.006,142.707"/>
		</defs>
		<clipPath id="SVGID_27_">
			<use xlink:href="#SVGID_26_"  overflow="visible"/>
		</clipPath>
		<defs>
			<filter id="Adobe_OpacityMaskFilter_5_" filterUnits="userSpaceOnUse" x="256.623" y="121.614" width="27.528" height="30.588">
				<feColorMatrix  type="matrix" values="1 0 0 0 0  0 1 0 0 0  0 0 1 0 0  0 0 0 1 0"/>
			</filter>
		</defs>
		<mask maskUnits="userSpaceOnUse" x="256.623" y="121.614" width="27.528" height="30.588" id="SVGID_28_">
			<g filter="url(#Adobe_OpacityMaskFilter_5_)">
				
					<linearGradient id="SVGID_29_" gradientUnits="userSpaceOnUse" x1="-257.7456" y1="329.1489" x2="-253.9472" y2="329.1489" gradientTransform="matrix(1.2368 -3.8752 -3.8752 -1.2368 1861.5535 -445.0106)">
					<stop  offset="0" style="stop-color:#000000"/>
					<stop  offset="0.0051" style="stop-color:#000000"/>
					<stop  offset="0.8163" style="stop-color:#FFFFFF"/>
					<stop  offset="1" style="stop-color:#FFFFFF"/>
				</linearGradient>
				<polygon clip-path="url(#SVGID_27_)" fill="url(#SVGID_29_)" points="256.623,145.889 264.371,121.614 284.151,127.921 
					276.403,152.202 				"/>
			</g>
		</mask>
		
			<linearGradient id="SVGID_30_" gradientUnits="userSpaceOnUse" x1="-257.7456" y1="329.1489" x2="-253.9472" y2="329.1489" gradientTransform="matrix(1.2368 -3.8752 -3.8752 -1.2368 1861.5535 -445.0106)">
			<stop  offset="0" style="stop-color:#F5C720"/>
			<stop  offset="0.0051" style="stop-color:#F5C720"/>
			<stop  offset="0.8163" style="stop-color:#F5A917"/>
			<stop  offset="1" style="stop-color:#F5A917"/>
		</linearGradient>
		<polygon clip-path="url(#SVGID_27_)" mask="url(#SVGID_28_)" fill="url(#SVGID_30_)" points="256.623,145.889 264.371,121.614 
			284.151,127.921 276.403,152.202 		"/>
	</g>
	<g>
		<defs>
			<path id="SVGID_31_" d="M276.677,112.377c1.432,4.069,4.585,7.919,7.611,10.938l1.275-6.009c0.237-5.223-1.428-8.071-1.428-8.071
				c-1.139-1.892-2.727-2.711-4.173-2.711C277.508,106.525,275.45,108.891,276.677,112.377"/>
		</defs>
		<clipPath id="SVGID_32_">
			<use xlink:href="#SVGID_31_"  overflow="visible"/>
		</clipPath>
		<defs>
			<filter id="Adobe_OpacityMaskFilter_6_" filterUnits="userSpaceOnUse" x="271.945" y="104.363" width="17.358" height="21.111">
				<feColorMatrix  type="matrix" values="1 0 0 0 0  0 1 0 0 0  0 0 1 0 0  0 0 0 1 0"/>
			</filter>
		</defs>
		<mask maskUnits="userSpaceOnUse" x="271.945" y="104.363" width="17.358" height="21.111" id="SVGID_33_">
			<g filter="url(#Adobe_OpacityMaskFilter_6_)">
				
					<linearGradient id="SVGID_34_" gradientUnits="userSpaceOnUse" x1="-292.73" y1="440.2153" x2="-288.9318" y2="440.2153" gradientTransform="matrix(-4 -0.875 -0.875 4 -499.1603 -1900.7788)">
					<stop  offset="0" style="stop-color:#000000"/>
					<stop  offset="0.0051" style="stop-color:#000000"/>
					<stop  offset="0.0829" style="stop-color:#242424"/>
					<stop  offset="0.2371" style="stop-color:#666666"/>
					<stop  offset="0.384" style="stop-color:#9C9C9C"/>
					<stop  offset="0.5193" style="stop-color:#C7C7C7"/>
					<stop  offset="0.6407" style="stop-color:#E6E6E6"/>
					<stop  offset="0.7438" style="stop-color:#F8F8F8"/>
					<stop  offset="0.8163" style="stop-color:#FFFFFF"/>
					<stop  offset="1" style="stop-color:#FFFFFF"/>
				</linearGradient>
				<polygon clip-path="url(#SVGID_32_)" fill="url(#SVGID_34_)" points="285.328,125.474 271.945,122.551 275.92,104.363 
					289.303,107.293 				"/>
			</g>
		</mask>
		
			<linearGradient id="SVGID_35_" gradientUnits="userSpaceOnUse" x1="-292.73" y1="440.2153" x2="-288.9318" y2="440.2153" gradientTransform="matrix(-4 -0.875 -0.875 4 -499.1603 -1900.7788)">
			<stop  offset="0" style="stop-color:#F5C720"/>
			<stop  offset="0.0051" style="stop-color:#F5C720"/>
			<stop  offset="0.2541" style="stop-color:#F5BB1C"/>
			<stop  offset="0.5836" style="stop-color:#F5AE18"/>
			<stop  offset="0.8163" style="stop-color:#F5A917"/>
			<stop  offset="1" style="stop-color:#F5A917"/>
		</linearGradient>
		<polygon clip-path="url(#SVGID_32_)" mask="url(#SVGID_33_)" fill="url(#SVGID_35_)" points="285.328,125.474 271.945,122.551 
			275.92,104.363 289.303,107.293 		"/>
	</g>
	<g>
		<defs>
			<path id="SVGID_36_" d="M332.087,157.191c0,0,0.232,5.222,5.938,12.817c0,0,7.833-5.463,11.632-10.923l-7.358-14.239
				C338.733,154.101,332.087,157.191,332.087,157.191"/>
		</defs>
		<clipPath id="SVGID_37_">
			<use xlink:href="#SVGID_36_"  overflow="visible"/>
		</clipPath>
		<defs>
			<filter id="Adobe_OpacityMaskFilter_7_" filterUnits="userSpaceOnUse" x="321.349" y="137.35" width="39.041" height="40.154">
				<feColorMatrix  type="matrix" values="1 0 0 0 0  0 1 0 0 0  0 0 1 0 0  0 0 0 1 0"/>
			</filter>
		</defs>
		<mask maskUnits="userSpaceOnUse" x="321.349" y="137.35" width="39.041" height="40.154" id="SVGID_38_">
			<g filter="url(#Adobe_OpacityMaskFilter_7_)">
				
					<linearGradient id="SVGID_39_" gradientUnits="userSpaceOnUse" x1="-246.8613" y1="465.8794" x2="-243.0641" y2="465.8794" gradientTransform="matrix(-4.9345 2.7681 2.7681 4.9345 -2156.6572 -1463.8481)">
					<stop  offset="0" style="stop-color:#000000"/>
					<stop  offset="0.0051" style="stop-color:#000000"/>
					<stop  offset="0.8163" style="stop-color:#FFFFFF"/>
					<stop  offset="1" style="stop-color:#FFFFFF"/>
				</linearGradient>
				<polygon clip-path="url(#SVGID_37_)" fill="url(#SVGID_39_)" points="360.39,163.989 336.292,177.504 321.349,150.87 
					345.45,137.35 				"/>
			</g>
		</mask>
		
			<linearGradient id="SVGID_40_" gradientUnits="userSpaceOnUse" x1="-246.8613" y1="465.8794" x2="-243.0641" y2="465.8794" gradientTransform="matrix(-4.9345 2.7681 2.7681 4.9345 -2156.6572 -1463.8481)">
			<stop  offset="0" style="stop-color:#F5C720"/>
			<stop  offset="0.0051" style="stop-color:#F5C720"/>
			<stop  offset="0.8163" style="stop-color:#F5A917"/>
			<stop  offset="1" style="stop-color:#F5A917"/>
		</linearGradient>
		<polygon clip-path="url(#SVGID_37_)" mask="url(#SVGID_38_)" fill="url(#SVGID_40_)" points="360.39,163.989 336.292,177.504 
			321.349,150.87 345.45,137.35 		"/>
	</g>
	<g>
		<defs>
			<path id="SVGID_41_" d="M295.772,174.756l10.203,9.729c8.546-1.184,18.757-6.884,18.757-6.884
				c-4.985-5.934-6.646-11.632-6.646-11.632S312.622,171.905,295.772,174.756"/>
		</defs>
		<clipPath id="SVGID_42_">
			<use xlink:href="#SVGID_41_"  overflow="visible"/>
		</clipPath>
		<defs>
			<filter id="Adobe_OpacityMaskFilter_8_" filterUnits="userSpaceOnUse" x="290.498" y="157.729" width="39.501" height="35.005">
				<feColorMatrix  type="matrix" values="1 0 0 0 0  0 1 0 0 0  0 0 1 0 0  0 0 0 1 0"/>
			</filter>
		</defs>
		<mask maskUnits="userSpaceOnUse" x="290.498" y="157.729" width="39.501" height="35.005" id="SVGID_43_">
			<g filter="url(#Adobe_OpacityMaskFilter_8_)">
				
					<linearGradient id="SVGID_44_" gradientUnits="userSpaceOnUse" x1="-177.7358" y1="325.3423" x2="-173.9376" y2="325.3423" gradientTransform="matrix(4 -1.25 -1.25 -4 1423.5206 1255.7892)">
					<stop  offset="0" style="stop-color:#000000"/>
					<stop  offset="0.0051" style="stop-color:#000000"/>
					<stop  offset="0.8163" style="stop-color:#FFFFFF"/>
					<stop  offset="1" style="stop-color:#FFFFFF"/>
				</linearGradient>
				<polygon clip-path="url(#SVGID_42_)" fill="url(#SVGID_44_)" points="290.498,167.62 322.15,157.729 329.999,182.838 
					298.346,192.734 				"/>
			</g>
		</mask>
		
			<linearGradient id="SVGID_45_" gradientUnits="userSpaceOnUse" x1="-177.7358" y1="325.3423" x2="-173.9376" y2="325.3423" gradientTransform="matrix(4 -1.25 -1.25 -4 1423.5206 1255.7892)">
			<stop  offset="0" style="stop-color:#F5C720"/>
			<stop  offset="0.0051" style="stop-color:#F5C720"/>
			<stop  offset="0.8163" style="stop-color:#F5A917"/>
			<stop  offset="1" style="stop-color:#F5A917"/>
		</linearGradient>
		<polygon clip-path="url(#SVGID_42_)" mask="url(#SVGID_43_)" fill="url(#SVGID_45_)" points="290.498,167.62 322.15,157.729 
			329.999,182.838 298.346,192.734 		"/>
	</g>
</g>
</svg>
