<svg id="圖層_1" data-name="圖層 1" xmlns="http://www.w3.org/2000/svg" viewBox="0 0 55.2 65.91"><defs><style>.cls-1{fill:#3562ad;}</style></defs><title>工作區域 2</title><circle class="cls-1" cx="25.98" cy="40.02" r="6.27"/><path class="cls-1" d="M2.36.14c19.92,16,60.15,6.05,51.69,44.24C40.75,21.47-.2,39.82,2.36.14Z"/><path class="cls-1" d="M25.89,25A15,15,0,0,0,18,27.2c.7.25,1.41.49,2.14.72a13.4,13.4,0,0,1,16.72,4.39c.83.26,1.64.53,2.45.81A15.09,15.09,0,0,0,25.89,25Z"/><path class="cls-1" d="M38.09,34.49a13.4,13.4,0,1,1-22-3.64h0a13.49,13.49,0,0,1,2.07-1.8c-.63-.22-1.25-.44-1.86-.68A14.92,14.92,0,0,0,14.9,29.7h0a15.09,15.09,0,1,0,25.29,5.56C39.5,35,38.8,34.73,38.09,34.49Z"/><path class="cls-1" d="M50.78,19.05c2.89-4.12,4.07-10,2.19-19C48.46,5.1,42,8.21,35.59,11.08,41.44,12.92,46.87,15.24,50.78,19.05Z"/><path class="cls-1" d="M50,41.84a24,24,0,0,1-.42,3.06A24.21,24.21,0,0,1,1.68,40,24,24,0,0,1,8.1,23.6c-.43-.36-.84-.73-1.25-1.12a25.89,25.89,0,1,0,44.4,22.76c.1-.48.18-1,.25-1.44A19.63,19.63,0,0,0,50,41.84Z"/></svg>