<svg xmlns="http://www.w3.org/2000/svg" xmlns:xlink="http://www.w3.org/1999/xlink" width="52" height="62" viewBox="0 0 52 62">
    <defs>
        <path id="a" d="M.077.133h49.007v40.94H.077z"/>
        <path id="c" d="M.934.05H17.86v17.583H.935z"/>
        <path id="e" d="M0 .807h47.658V41H0z"/>
    </defs>
    <g fill="none" fill-rule="evenodd">
        <path fill="#FFF" d="M24.041 32.186a5.804 5.804 0 1 1 0 11.607 5.804 5.804 0 0 1 0-11.607"/>
        <g transform="translate(2 .95)">
            <mask id="b" fill="#fff">
                <use xlink:href="#a"/>
            </mask>
            <path fill="#FFF" d="M.183.133c18.434 14.808 55.664 5.6 47.835 40.94C35.708 19.873-2.186 36.854.183.134" mask="url(#b)"/>
        </g>
        <path fill="#FFF" d="M23.958 24.09a13.867 13.867 0 0 0-7.301 2.035c.647.232 1.304.454 1.98.667a12.4 12.4 0 0 1 15.473 4.063c.768.24 1.517.49 2.267.749a13.963 13.963 0 0 0-12.42-7.514M35.248 32.872c2.817 6.24.041 13.586-6.2 16.404-6.243 2.818-13.587.04-16.405-6.201a12.398 12.398 0 0 1 4.161-15.238 45.932 45.932 0 0 1-1.72-.63c-.459.383-.892.794-1.297 1.23-5.29 5.614-5.029 14.452.584 19.742 5.611 5.29 14.45 5.029 19.74-.583a13.962 13.962 0 0 0 3.08-14.012c-.638-.24-1.286-.49-1.943-.712"/>
        <g transform="translate(32 .95)">
            <mask id="d" fill="#fff">
                <use xlink:href="#c"/>
            </mask>
            <path fill="#FFF" d="M14.992 17.633C17.666 13.82 18.759 8.379 17.017.05 12.846 4.724 6.867 7.602.935 10.258c5.412 1.702 10.438 3.85 14.056 7.375" mask="url(#d)"/>
        </g>
        <g transform="translate(0 20.95)">
            <mask id="f" fill="#fff">
                <use xlink:href="#e"/>
            </mask>
            <path fill="#FFF" d="M46.27 18.724a21.969 21.969 0 0 1-.39 2.83c-2.55 12.109-14.432 19.857-26.54 17.307A22.404 22.404 0 0 1 1.554 17.02a22.212 22.212 0 0 1 5.94-15.177A24.49 24.49 0 0 1 6.339.807c-8.965 9.732-8.344 24.89 1.388 33.855 9.732 8.966 24.889 8.345 33.855-1.387a23.96 23.96 0 0 0 5.846-11.405c.092-.444.166-.925.23-1.333a18.196 18.196 0 0 0-1.387-1.813" mask="url(#f)"/>
        </g>
    </g>
</svg>
