<svg height="512pt" viewBox="0 -11 512.002 512" width="512pt" xmlns="http://www.w3.org/2000/svg"><path d="m417.777344 348.804688-84.859375 84.859374c-76.164063 76.164063-199.632813 76.164063-275.796875 0-76.160156-76.160156-76.160156-199.632812 0-275.792968l84.859375-84.859375h42.429687l42.429688 42.429687v42.429688l-84.859375 84.859375c-29.277344 29.273437-29.277344 76.796875 0 106.074219 29.277343 29.277343 76.800781 29.277343 106.074219 0l84.859374-84.859376h42.429688l42.429688 42.429688v42.429688zm0 0" fill="#f77e00"/><path d="m417.777344 348.804688-84.859375 84.859374c-76.164063 76.164063-199.632813 76.164063-275.796875 0l84.859375-84.859374c29.277343 29.277343 76.800781 29.277343 106.078125 0l84.859375-84.859376h42.429687l42.429688 42.429688zm0 0" fill="#d55f05"/><path d="m444.992188 67.007812 67.011718-67.007812-26.730468 5.515625-187.300782 41.761719 62.160156 62.160156-63.007812 63.011719 26.730469-5.515625 183.296875-37.765625zm0 0" fill="#ffda2d"/><path d="m332.914062 263.945312 63.644532-63.644531 84.859375 84.859375-63.644531 63.644532zm0 0" fill="#c4d9f2"/><path d="m141.980469 73.011719 63.644531-63.644531 84.859375 84.859374-63.644531 63.644532zm0 0" fill="#e3eeff"/><path d="m507.152344 129.167969-183.296875 37.765625 161.417969-161.417969 26.726562-5.51171875-67.007812 67.00390575zm0 0" fill="#fdbf00"/></svg>